<svg width="101" height="100" viewBox="0 0 101 100" fill="none" xmlns="http://www.w3.org/2000/svg">
<mask id="mask0_424_2367" style="mask-type:alpha" maskUnits="userSpaceOnUse" x="0" y="0" width="101" height="100">
<circle cx="50.5" cy="50" r="50" fill="#D9D9D9"/>
</mask>
<g mask="url(#mask0_424_2367)">
<rect x="-22.5469" y="-20.9678" width="137.097" height="166.129" fill="#2C3874"/>
<path d="M65.6945 17.0726C77.8531 26.6679 83.0145 44.1542 83.0145 44.1542C83.0145 44.1542 95.5542 60.9407 93.7598 71.014C93.3051 73.8753 92.1638 76.5838 90.4336 78.9076C88.7034 81.2314 86.4359 83.1014 83.8251 84.3573L84.2408 78.8149C84.2408 78.8149 81.5388 86.1586 70.1492 90.3154C58.7596 94.4722 42.8529 92.6502 34.3245 89.5048C29.266 87.6657 24.7712 84.5458 21.2791 80.45L25.2073 87.953C25.2073 87.953 13.7969 88.8675 5.64259 77.561C-2.51166 66.2545 14.9053 46.6413 16.1177 42.7062C17.3301 38.7711 16.2701 11.2462 45.5132 12.6387C45.5132 12.6387 57.3255 10.4702 65.6945 17.0726Z" fill="#A6A6A6"/>
<path d="M87.9263 83.1725C90.9954 81.2673 93.3025 77.6301 94.5911 74.3462C96.0047 70.8624 96.2048 67.0043 95.1592 63.393C93.8498 59.063 91.0716 55.4466 88.3697 51.9064C85.5985 48.2484 82.5086 44.7844 79.7859 41.0849C79.6335 40.877 79.9384 40.6622 80.1185 40.8147C83.022 43.511 85.7677 46.3724 88.342 49.3846C90.934 52.114 93.1986 55.1366 95.0899 58.391C96.711 61.3908 97.8611 64.841 97.5701 68.2911C97.3208 71.1249 96.389 73.8561 94.8543 76.2514C93.0461 79.1265 90.552 81.101 88.1203 83.4149C87.954 83.5396 87.7531 83.2833 87.9263 83.1725Z" fill="#A6A6A6"/>
<path d="M1.8116 65.416C4.09092 54.9686 12.3907 47.5556 16.8731 38.1613C19.2979 33.0761 21.0299 27.5614 24.39 22.9959C24.4869 22.8712 24.6948 22.9959 24.6117 23.1552C21.8405 27.2289 20.538 31.8984 18.7298 36.4154C16.9216 40.9325 14.2543 45.117 11.5593 49.2392C6.66121 56.7214 0.779327 65.5685 3.19027 74.9698C4.29875 79.3067 7.46486 83.8861 12.1413 84.7382C12.3214 84.7729 12.2521 85.0708 12.072 85.0154C10.2065 84.5069 8.46416 83.6236 6.95141 82.4193C5.43865 81.2151 4.18719 79.7151 3.2734 78.0111C1.2861 74.1256 0.767075 69.6535 1.8116 65.416Z" fill="#A6A6A6"/>
<path d="M1.70716 68.1664C0.966192 64.3965 1.40402 60.49 2.96112 56.9777C4.57535 53.5137 7.40888 50.8187 10.284 48.38C13.5956 45.5742 17.1219 42.8376 18.9648 38.8263C19.041 38.6531 19.2904 38.8263 19.2142 38.9649C16.3183 45.6227 9.77134 49.3569 5.72539 55.121C1.09748 61.7372 2.10898 70.4873 6.55676 76.9372C9.37304 80.8478 13.0708 84.0401 17.3506 86.2554C17.3579 86.2595 17.3643 86.265 17.3694 86.2715C17.3746 86.2781 17.3784 86.2856 17.3806 86.2937C17.3829 86.3017 17.3835 86.3101 17.3825 86.3184C17.3815 86.3267 17.3789 86.3347 17.3748 86.342C17.3707 86.3493 17.3652 86.3557 17.3587 86.3608C17.3521 86.366 17.3446 86.3698 17.3365 86.3721C17.3285 86.3743 17.3201 86.375 17.3118 86.374C17.3035 86.373 17.2955 86.3703 17.2882 86.3662C9.99304 82.6944 3.23132 76.5423 1.70716 68.1664Z" fill="#A6A6A6"/>
<path d="M85.9668 94.6401L31.0677 139.5L20.5198 100.01C20.5198 100.01 34.8278 89.6101 53.2557 89.6101C69.2762 89.6101 85.9668 94.6401 85.9668 94.6401Z" fill="#EBEBEB"/>
<path d="M64.0955 95.1579C63.6937 97.1947 55.4216 109.921 46.249 108.259C39.799 107.088 41.6972 94.0771 41.6972 94.0771L36.9585 75.995L59.3567 60.6426C59.3567 60.6426 64.2617 94.2919 64.0955 95.1579Z" fill="#F7A9A0"/>
<path d="M61.0664 72.4617C59.3838 77.059 56.7729 81.2608 53.3963 84.8055C50.0197 88.3501 45.9496 91.1619 41.4394 93.0656L36.957 75.995L59.3552 60.6426C59.3552 60.6426 60.1311 65.9841 61.0664 72.4617Z" fill="#263238"/>
<path d="M12.7725 47.798C8.65731 78.1426 26.3999 84.0176 32.9538 84.8974C38.9049 85.6872 59.2802 87.6686 66.5061 57.8782C73.732 28.0878 60.9014 16.6289 47.3848 14.0933C33.8683 11.5576 16.8808 17.4533 12.7725 47.798Z" fill="#F7A9A0"/>
<path d="M20.4959 44.4106C21.1938 44.3415 21.8876 44.2351 22.5743 44.0919C23.3285 44.08 24.0583 43.8221 24.6527 43.3575C24.8121 43.1762 24.9063 42.9467 24.9201 42.7056C24.9339 42.4645 24.8666 42.2257 24.7288 42.0274C24.0984 41.2099 23.0731 41.1198 22.0962 41.2376C21.1088 41.3248 20.1884 41.7738 19.5121 42.4985C19.3633 42.6741 19.27 42.8899 19.2439 43.1185C19.2178 43.3472 19.26 43.5785 19.3653 43.7831C19.4706 43.9878 19.6342 44.1566 19.8354 44.2683C20.0367 44.38 20.2665 44.4295 20.4959 44.4106Z" fill="#A6A6A6"/>
<path d="M41.6064 46.2323C40.9045 46.0835 40.2108 45.8985 39.5281 45.678C38.7762 45.5838 38.0768 45.2426 37.5397 44.7081C37.4052 44.5082 37.3405 44.2694 37.3555 44.0289C37.3705 43.7884 37.4645 43.5596 37.6229 43.3779C37.9902 43.063 38.4354 42.8525 38.9119 42.7684C39.3884 42.6843 39.8787 42.7297 40.3317 42.8999C41.3026 43.0984 42.1647 43.6517 42.7496 44.4518C42.8698 44.6394 42.9337 44.8575 42.9336 45.0803C42.9335 45.3031 42.8695 45.5212 42.7491 45.7087C42.6287 45.8962 42.4571 46.0452 42.2545 46.138C42.052 46.2308 41.827 46.2635 41.6064 46.2323Z" fill="#A6A6A6"/>
<path d="M36.6941 52.7308C36.6941 52.6546 36.8535 52.8416 36.8396 52.9247C36.6041 55.0031 36.6803 57.4349 38.5162 58.2801C38.5716 58.2801 38.5577 58.4117 38.5162 58.3909C36.2092 57.8783 36.133 54.6637 36.6941 52.7308Z" fill="#263238"/>
<path d="M38.745 50.7007C42.1259 50.7007 41.8349 57.4763 38.7035 57.4555C35.572 57.4347 35.9046 50.6868 38.745 50.7007Z" fill="#263238"/>
<path d="M40.0544 51.1166C40.6294 51.5253 41.1767 52.2181 41.8903 52.322C42.7078 52.4398 43.3591 51.7539 43.9271 51.1027C43.9895 51.0334 44.0449 51.1027 44.0449 51.1858C44.0034 52.4744 43.4491 53.7838 42.0497 53.9155C40.7749 54.0402 39.9158 52.8555 39.6456 51.5392C39.5971 51.2967 39.8466 50.9503 40.0544 51.1166Z" fill="#263238"/>
<path d="M22.8438 49.6339C19.4837 49.2598 18.978 56.0007 22.0956 56.3471C25.2132 56.6935 25.6635 49.9457 22.8438 49.6339Z" fill="#263238"/>
<path d="M21.4025 49.9732C20.8413 50.2918 20.2663 50.9015 19.6289 50.8946C18.9915 50.8877 18.3888 50.1187 17.9731 49.3843C17.9316 49.3081 17.8692 49.3843 17.8623 49.4536C17.7306 50.7422 18.0563 52.1139 19.2479 52.4534C20.4395 52.7929 21.2778 51.7121 21.6796 50.4581C21.7835 50.2226 21.6311 49.8485 21.4025 49.9732Z" fill="#263238"/>
<path d="M34.8645 69.9054C34.3657 70.3973 33.8669 71.0762 33.1048 71.1455C32.324 71.1315 31.5547 70.9546 30.8463 70.6259C30.8323 70.6165 30.8153 70.6125 30.7985 70.6147C30.7817 70.617 30.7664 70.6253 30.7553 70.638C30.7443 70.6508 30.7382 70.6672 30.7384 70.6841C30.7386 70.701 30.7449 70.7173 30.7562 70.7298C31.0576 71.1411 31.4647 71.4633 31.9342 71.6621C32.4038 71.8609 32.9184 71.929 33.4235 71.8591C33.8501 71.7467 34.2338 71.5102 34.5261 71.1798C34.8183 70.8493 35.006 70.4395 35.0655 70.0024C35.1001 69.9054 34.9407 69.843 34.8645 69.9054Z" fill="#263238"/>
<path d="M26.5239 61.8828C26.5239 61.8828 25.9212 64.9796 25.8311 66.4552C25.8311 66.5938 26.1776 66.6769 26.6764 66.7324C26.6764 66.7324 26.7179 66.7324 26.7387 66.7324C27.9884 67.0255 29.2945 66.9713 30.5156 66.5756C31.7367 66.18 32.8264 65.458 33.6667 64.4877C33.7776 64.3491 33.5974 64.1829 33.4589 64.2729C31.4359 65.5892 29.2605 65.8456 26.9535 65.7555C26.8704 65.3398 28.159 60.4833 27.9303 60.4556C27.1267 60.3378 25.5055 60.802 24.5356 61.0306C25.6025 54.5391 27.7086 48.2692 28.6924 41.7846C28.6984 41.7372 28.6873 41.6892 28.661 41.6492C28.6348 41.6092 28.5951 41.5799 28.5492 41.5666C28.5033 41.5532 28.4541 41.5567 28.4105 41.5763C28.3669 41.596 28.3318 41.6305 28.3114 41.6738C25.6372 48.0891 24.2447 55.5298 22.9699 62.2084C22.8244 63.0467 25.9212 62.1045 26.5239 61.8828Z" fill="#263238"/>
<path d="M65.4804 59.2847C58.8365 56.0216 58.6633 49.0174 58.6633 49.0174C53.4064 46.6122 48.8846 42.8508 45.5624 38.1196C45.7564 38.7501 47.142 43.2741 47.9249 45.5603C28.7551 41.6529 23.0603 26.8547 23.0603 26.8547C16.7212 32.9652 15.4395 36.9211 14.4696 38.8886C14.4696 38.8886 14.5319 27.1111 20.7048 19.324C28.3256 9.79105 53.4049 7.6018 64.7946 20.384C77.0779 34.1845 65.4804 59.2847 65.4804 59.2847Z" fill="#A6A6A6"/>
<path d="M30.8389 54.2965L31.7187 53.3682C30.4094 51.9826 27.271 50.0219 24.7908 52.3705L25.6291 53.3404C27.8737 51.2413 30.7419 54.1718 30.8389 54.2965Z" fill="#37474F"/>
<path d="M73.4401 63.6215L74.7148 63.3375C74.5832 62.7347 73.3292 57.4694 70.6273 56.264C68.0917 55.1416 50.6678 52.2596 49.9334 52.1072L49.7186 53.4027C54.7137 54.2202 68.1332 56.5619 70.0939 57.4348C71.8813 58.2592 73.1006 62.1736 73.4401 63.6215Z" fill="#37474F"/>
<path d="M41.613 61.7648C43.7954 61.6471 45.7698 61.1898 46.913 60.3307C50.0306 57.9891 51.9496 49.2944 52.0328 48.9272L52.2129 48.082L51.3469 48.082C50.6887 48.082 35.0799 48.1513 31.4912 51.6015C29.5583 53.4512 30.5629 58.0306 31.8584 59.4093C33.4588 61.1067 37.8373 61.9588 41.613 61.7648ZM50.474 49.4815C49.7812 52.2943 48.0907 57.705 46.0747 59.2223C43.3589 61.2591 34.7474 60.4485 32.8768 58.4532C31.9762 57.4972 31.2072 53.7976 32.4542 52.606C34.9414 50.2228 45.5689 49.5646 50.474 49.4815Z" fill="#37474F"/>
<path d="M20.0728 58.9727C21.526 58.9792 22.9293 58.4431 24.0079 57.4693C24.7984 56.4859 25.3376 55.3249 25.579 54.0865C25.8205 52.8481 25.7568 51.5695 25.3935 50.3612C23.9594 46.5023 14.4681 44.8534 13.3942 44.6802L12.5698 44.5486L12.5698 45.38C12.5698 45.7264 12.7361 53.8737 14.0662 56.4648C14.6967 57.7049 16.2208 58.5847 18.223 58.8757C18.8349 58.9688 19.4545 59.0013 20.0728 58.9727ZM13.9831 46.2044C17.1007 46.814 23.1765 48.4491 24.0633 50.8461C24.8601 52.98 23.7931 55.6957 22.9964 56.5132C22.1997 57.3307 20.3014 57.7811 18.4239 57.5109C16.8859 57.2892 15.722 56.6657 15.2994 55.8482C14.4196 54.1231 14.0732 48.9132 13.9831 46.2044Z" fill="#37474F"/>
<path d="M61.3221 57.435C61.3221 57.435 68.4649 48.2 72.691 50.7911C76.917 53.3821 71.2222 66.9749 66.0401 68.6237C65.3926 68.8809 64.6999 69.0048 64.0035 68.9882C63.307 68.9715 62.6211 68.8146 61.9866 68.5268C61.3522 68.239 60.7823 67.8262 60.311 67.3132C59.8397 66.8001 59.4767 66.1973 59.2437 65.5408L61.3221 57.435Z" fill="#F7A9A0"/>
<path d="M70.959 54.6638C71.0352 54.6638 71.0491 54.7747 70.959 54.7955C67.3149 56.0771 65.2711 59.2917 63.7955 62.6587C64.9178 61.384 66.4004 60.7327 68.1116 62.0768C68.2017 62.1461 68.1116 62.2915 68.0008 62.2638C67.3824 62.035 66.7085 62.0027 66.0711 62.1713C65.4338 62.34 64.864 62.7014 64.4398 63.206C63.7385 64.0631 63.1301 64.992 62.6246 65.9772C62.4445 66.289 61.8764 66.0881 62.015 65.7278L62.0496 65.6447C62.1951 61.0861 66.0401 54.8924 70.959 54.6638Z" fill="#263238"/>
</g>
</svg>
