<svg width="48" height="48" viewBox="0 0 48 48" fill="none" xmlns="http://www.w3.org/2000/svg">
<g clip-path="url(#clip0_620_7505)">
<mask id="mask0_620_7505" style="mask-type:luminance" maskUnits="userSpaceOnUse" x="0" y="0" width="49" height="48">
<path d="M12.173 47.8302C9.31808 47.7004 7.7672 47.2254 6.73567 46.8231C5.36884 46.291 4.39438 45.6576 3.36855 44.6333C2.34414 43.609 1.70781 42.6347 1.17849 41.268C0.77615 40.2366 0.301043 38.6859 0.171209 35.8313C0.0285349 32.7456 0 31.8198 0 24.0021C0 16.1845 0.0313884 15.2601 0.169783 12.1715C0.299617 9.31697 0.777576 7.76913 1.17707 6.73487C1.70924 5.36821 2.34414 4.39385 3.36712 3.36672C4.39152 2.34244 5.36599 1.70618 6.73424 1.17693C7.76578 0.774631 9.31665 0.299581 12.1716 0.169763C15.259 0.0285315 16.1864 0 24.0021 0C31.8207 0 32.7452 0.0313847 35.8341 0.169763C38.6891 0.299581 40.2371 0.777484 41.2715 1.17693C42.6383 1.70618 43.6128 2.34244 44.6386 3.36672C45.663 4.391 46.2965 5.36678 46.8286 6.73344C47.231 7.76485 47.7061 9.31554 47.8359 12.1701C47.9772 15.2587 48.0057 16.1831 48.0057 24.0007C48.0057 31.8155 47.9772 32.7428 47.8359 35.8313C47.7061 38.6859 47.2281 40.2366 46.8286 41.268C46.2965 42.6347 45.663 43.609 44.6386 44.6333C43.6142 45.6576 42.6383 46.291 41.2715 46.8231C40.2399 47.2254 38.6891 47.7004 35.8341 47.8302C32.7481 47.9715 31.8207 48 24.0021 48C16.1864 48 15.259 47.9729 12.173 47.8302Z" fill="white"/>
</mask>
<g mask="url(#mask0_620_7505)">
<mask id="mask1_620_7505" style="mask-type:luminance" maskUnits="userSpaceOnUse" x="-79" y="-79" width="206" height="206">
<path d="M-78.7656 -78.7541H126.868V126.756H-78.7656V-78.7541Z" fill="white"/>
</mask>
<g mask="url(#mask1_620_7505)">
<mask id="mask2_620_7505" style="mask-type:luminance" maskUnits="userSpaceOnUse" x="-79" y="-79" width="206" height="206">
<path d="M-78.7656 -78.7541H126.868V126.756H-78.7656V-78.7541Z" fill="white"/>
</mask>
<g mask="url(#mask2_620_7505)">
<path d="M-78.7656 -78.7541H126.768V126.756H-78.7656V-78.7541Z" fill="#F35E79"/>
</g>
</g>
</g>
<path d="M18.1162 24.0007C18.1162 20.7495 20.7514 18.1132 24.003 18.1132C27.2545 18.1132 29.8911 20.7495 29.8911 24.0007C29.8911 27.2519 27.2545 29.8882 24.003 29.8882C20.7514 29.8882 18.1162 27.2519 18.1162 24.0007ZM14.9331 24.0007C14.9331 29.0094 18.9936 33.0694 24.003 33.0694C29.0123 33.0694 33.0728 29.0094 33.0728 24.0007C33.0728 18.992 29.0123 14.932 24.003 14.932C18.9936 14.932 14.9331 18.992 14.9331 24.0007ZM31.3122 14.5725C31.3122 15.7423 32.261 16.6924 33.4323 16.6924C34.6022 16.6924 35.5525 15.7423 35.5525 14.5725C35.5525 13.4027 34.6037 12.454 33.4323 12.454C32.261 12.454 31.3122 13.4027 31.3122 14.5725ZM16.8664 38.3763C15.1443 38.2978 14.2083 38.0111 13.5863 37.7686C12.7616 37.4476 12.1738 37.0653 11.5546 36.4476C10.9368 35.8299 10.553 35.2421 10.2334 34.4176C9.99089 33.7956 9.70411 32.8597 9.62564 31.1379C9.54003 29.2762 9.52291 28.717 9.52291 24.0007C9.52291 19.2844 9.54146 18.7267 9.62564 16.8635C9.70411 15.1417 9.99231 14.2073 10.2334 13.5838C10.5545 12.7593 10.9368 12.1715 11.5546 11.5524C12.1724 10.9347 12.7602 10.5509 13.5863 10.2314C14.2083 9.98887 15.1443 9.70213 16.8664 9.62367C18.7283 9.53807 19.2876 9.52096 24.003 9.52096C28.7198 9.52096 29.2776 9.5395 31.141 9.62367C32.863 9.70213 33.7976 9.9903 34.421 10.2314C35.2457 10.5509 35.8335 10.9347 36.4527 11.5524C37.0705 12.1701 37.4529 12.7593 37.7739 13.5838C38.0164 14.2058 38.3032 15.1417 38.3817 16.8635C38.4673 18.7267 38.4844 19.2844 38.4844 24.0007C38.4844 28.7155 38.4673 29.2748 38.3817 31.1379C38.3032 32.8597 38.015 33.7956 37.7739 34.4176C37.4529 35.2421 37.0705 35.8299 36.4527 36.4476C35.835 37.0653 35.2457 37.4476 34.421 37.7686C33.799 38.0111 32.863 38.2978 31.141 38.3763C29.2791 38.4619 28.7198 38.479 24.003 38.479C19.2876 38.479 18.7283 38.4619 16.8664 38.3763ZM16.7208 6.44668C14.8404 6.53228 13.5563 6.83043 12.4335 7.26697C11.2721 7.71776 10.2876 8.32263 9.30462 9.30412C8.32302 10.2856 7.71808 11.2699 7.26723 12.4326C6.83064 13.5553 6.53245 14.8392 6.44685 16.7195C6.35982 18.6025 6.33984 19.2046 6.33984 24.0007C6.33984 28.7969 6.35982 29.3989 6.44685 31.2819C6.53245 33.1622 6.83064 34.4461 7.26723 35.5688C7.71808 36.73 8.32159 37.7158 9.30462 38.6973C10.2862 39.6788 11.2707 40.2822 12.4335 40.7344C13.5577 41.171 14.8404 41.4691 16.7208 41.5547C18.6056 41.6403 19.2062 41.6617 24.003 41.6617C28.8011 41.6617 29.4018 41.6417 31.2851 41.5547C33.1655 41.4691 34.4496 41.171 35.5724 40.7344C36.7338 40.2822 37.7183 39.6788 38.7013 38.6973C39.6829 37.7158 40.2864 36.73 40.7387 35.5688C41.1753 34.4461 41.4749 33.1622 41.5591 31.2819C41.6447 29.3974 41.6646 28.7969 41.6646 24.0007C41.6646 19.2046 41.6447 18.6025 41.5591 16.7195C41.4734 14.8392 41.1753 13.5553 40.7387 12.4326C40.2864 11.2714 39.6829 10.287 38.7013 9.30412C37.7197 8.32263 36.7338 7.71776 35.5739 7.26697C34.4496 6.83043 33.1655 6.53085 31.2865 6.44668C29.4032 6.36109 28.8011 6.33969 24.0044 6.33969C19.2062 6.33969 18.6056 6.35966 16.7208 6.44668Z" fill="white"/>
</g>
<defs>
<clipPath id="clip0_620_7505">
<rect width="48" height="48" fill="white"/>
</clipPath>
</defs>
</svg>
