<svg width="101" height="100" viewBox="0 0 101 100" fill="none" xmlns="http://www.w3.org/2000/svg">
<mask id="mask0_424_2608" style="mask-type:alpha" maskUnits="userSpaceOnUse" x="0" y="0" width="101" height="100">
<circle cx="50.5" cy="50" r="50" fill="#D9D9D9"/>
</mask>
<g mask="url(#mask0_424_2608)">
<rect x="-7.22656" y="-20.9678" width="137.097" height="166.129" fill="#2C3874"/>
<path d="M154.028 119.032C154.028 119.032 132.68 163.278 114.531 178.004C110.897 180.958 107.386 182.719 104.197 182.686C85.1682 182.519 57.678 134.751 48.1578 114.083C42.2607 101.296 42.2049 89.7139 47.567 87.2279C50.9113 85.6896 56.2176 87.5847 63.5193 94.7638C82.8049 113.715 89.5604 121.329 90.1846 121.072C91.3886 120.582 102.447 83.1702 102.447 83.1702L154.028 119.032Z" fill="#F35E79"/>
<path d="M-32.3067 237.41L97.0066 237.41C96.1483 231.368 70.2521 110.326 59.2382 91.8768C54.0099 83.1035 32.5506 77.329 18.1366 91.2525C-9.39818 117.884 -33.3546 236.217 -32.3067 237.41Z" fill="#F35E79"/>
<path d="M50.4082 98.108C45.4251 99.4681 31.9253 95.0647 26.998 86.9046C26.6636 86.3472 27.299 80.2829 27.7337 72.8808C27.9678 68.4217 28.135 63.3718 27.9567 58.7901C27.9567 57.8537 56.9407 64.6426 56.9407 64.6426C56.9407 64.6426 54.4994 74.3634 54.8561 82.3452C54.894 82.9764 54.9873 83.6031 55.1348 84.218C55.1348 84.3072 55.1348 84.4075 55.1348 84.5301C55.9597 88.0751 56.4614 96.4693 50.4082 98.108Z" fill="#F7A9A0"/>
<path d="M55.1934 84.2182C55.1856 84.3221 55.1856 84.4264 55.1934 84.5303C54.2168 84.6939 53.2293 84.7833 52.2393 84.7979C36.2423 85.0766 30.2783 65.5235 28.6953 58.7234C33.1544 59.0913 56.0183 64.431 56.9101 64.6317C56.9101 64.6317 54.4688 74.3413 54.8255 82.3342C54.8929 82.9717 55.016 83.6021 55.1934 84.2182Z" fill="#263238"/>
<path d="M24.2327 25.6705C21.0556 35.8483 26.2839 65.334 33.4965 71.9334C43.953 81.5204 61.1651 82.5237 69.3252 69.9268C77.2289 57.6644 69.7488 19.4166 61.6779 13.408C49.7944 4.54556 28.9036 10.6322 24.2327 25.6705Z" fill="#F7A9A0"/>
<path d="M53.8097 43.7184C53.8097 43.6515 53.6647 43.841 53.687 43.9191C54.0884 45.9033 54.2221 48.2332 52.5723 49.2031C52.5723 49.2031 52.5723 49.3257 52.5723 49.3034C54.7126 48.6234 54.512 45.5243 53.8097 43.7184Z" fill="#263238"/>
<path d="M51.6684 42.0019C48.4356 42.314 49.2828 48.7685 52.2927 48.4787C55.3026 48.1888 54.3885 41.6897 51.6684 42.0019Z" fill="#263238"/>
<path d="M64.4779 42.2581C64.4779 42.1801 64.6563 42.325 64.6563 42.4142C64.8569 44.4208 65.4254 46.6838 67.3205 47.1074C67.3874 47.1074 67.3874 47.23 67.3205 47.2189C65.0799 47.2077 64.3664 44.2313 64.4779 42.2581Z" fill="#263238"/>
<path d="M65.9926 39.9282C69.1697 39.2593 70.2734 45.6804 67.3304 46.2935C64.3874 46.9066 63.3283 40.4967 65.9926 39.9282Z" fill="#263238"/>
<path d="M48.758 39.3374C49.6053 38.9918 50.3299 38.5459 51.1437 38.1223C52.0542 37.8204 52.8385 37.2243 53.3732 36.4279C53.4871 36.1451 53.5052 35.8329 53.4246 35.5389C53.3441 35.2449 53.1694 34.9855 52.9273 34.8003C52.3939 34.5099 51.7929 34.3661 51.1858 34.3838C50.5787 34.4014 49.9872 34.5798 49.4715 34.9006C48.3306 35.398 47.4136 36.2991 46.8964 37.4312C46.7982 37.6929 46.7767 37.9772 46.8343 38.2508C46.8919 38.5243 47.0262 38.7759 47.2215 38.9759C47.4168 39.1759 47.6651 39.3161 47.9372 39.3801C48.2093 39.4441 48.494 39.4293 48.758 39.3374Z" fill="#263238"/>
<path d="M68.0547 36.3501C67.1649 36.2925 66.2791 36.1846 65.4016 36.0268C64.452 36.0405 63.5241 35.743 62.7596 35.1796C62.5561 34.9523 62.4328 34.6646 62.4087 34.3605C62.3845 34.0564 62.4608 33.7528 62.6258 33.4963C63.0229 33.0349 63.5363 32.6883 64.1126 32.4923C64.6889 32.2962 65.3072 32.258 65.9032 32.3815C67.1476 32.46 68.319 32.996 69.1918 33.8865C69.3873 34.1003 69.5154 34.3672 69.5599 34.6535C69.6044 34.9399 69.5634 35.233 69.442 35.4961C69.3205 35.7593 69.1241 35.9807 68.8773 36.1326C68.6305 36.2845 68.3443 36.3602 68.0547 36.3501Z" fill="#263238"/>
<path d="M53.4633 62.2573C54.0096 62.6698 54.5781 63.2495 55.3027 63.216C56.046 63.1035 56.7567 62.8337 57.3873 62.4246C57.3992 62.4113 57.4158 62.4032 57.4336 62.4021C57.4513 62.4011 57.4688 62.4072 57.4821 62.419C57.4954 62.4308 57.5035 62.4474 57.5045 62.4652C57.5056 62.483 57.4995 62.5004 57.4877 62.5137C57.2533 62.945 56.907 63.3051 56.4852 63.5562C56.0634 63.8073 55.5818 63.9401 55.0909 63.9406C54.6729 63.8784 54.2812 63.6986 53.9615 63.4223C53.6418 63.146 53.4071 62.7845 53.285 62.38C53.2181 62.2685 53.3853 62.2016 53.4633 62.2573Z" fill="#263238"/>
<path d="M61.1761 57.6086C60.4726 58.8183 59.4709 59.8277 58.2666 60.5405C57.5892 60.9206 56.8076 61.073 56.037 60.9752C54.3872 60.7634 54.153 59.3031 54.2757 58.0099C54.3505 57.321 54.5077 56.6436 54.7439 55.9922C56.657 57.2117 58.9137 57.7788 61.1761 57.6086Z" fill="white"/>
<path d="M54.7784 55.9921C55.3903 56.7177 56.1462 57.3084 56.9982 57.7267C57.8502 58.145 58.7797 58.3819 59.728 58.4223C60.5552 58.4738 61.3854 58.4025 62.1917 58.2105C62.3477 58.1905 62.501 58.1531 62.6487 58.099L63.0723 57.9764C63.177 57.9423 63.2676 57.8747 63.33 57.784C63.3925 57.6934 63.4233 57.5847 63.4179 57.4747C63.422 57.4079 63.422 57.3409 63.4179 57.2741L63.4179 57.0957C63.2618 55.5573 62.8048 53.2275 62.8048 53.2275C63.3956 53.4393 66.4389 54.3422 66.2829 53.5507C65.012 46.9513 63.5851 39.605 60.9208 33.2954C60.9006 33.257 60.8678 33.2268 60.828 33.2097C60.7882 33.1926 60.7437 33.1897 60.702 33.2014C60.6602 33.2132 60.6238 33.2388 60.5987 33.2742C60.5736 33.3095 60.5614 33.3524 60.5641 33.3957C61.5451 39.7945 63.6297 45.9814 64.7222 52.3468C63.6399 52.0016 62.5136 51.8139 61.3779 51.7894C61.1661 51.8786 62.3478 56.2485 62.3589 56.9619L62.3589 57.04C59.8172 57.7088 57.7549 57.1849 55.0237 55.7803C54.7784 55.7022 54.6335 55.8583 54.7784 55.9921Z" fill="#263238"/>
<path d="M28.7478 49.3146C34.5112 49.3146 33.3518 24.7897 33.3518 24.7897C33.3518 24.7897 39.2378 27.5543 44.0759 27.8999C47.8574 28.1294 51.6527 27.935 55.3909 27.3202C56.1935 27.0972 46.1606 23.1733 46.1606 23.1733C46.1606 23.1733 59.4152 23.9759 63.1051 21.7909C66.7949 19.606 66.4494 18.6696 66.2153 17.3319C65.9812 15.9941 56.4722 4.9802 39.3493 8.1573C36.0777 8.67488 32.9852 9.9943 30.3475 11.9978C27.7099 14.0013 25.6093 16.6266 24.233 19.6394C24.233 19.6394 19.1831 28.3458 19.473 32.3812C19.9077 37.799 22.6278 49.3146 28.7478 49.3146Z" fill="#263238"/>
<path d="M31.5455 50.0505C31.5455 50.0505 24.7454 40.6195 20.4536 43.0609C16.1617 45.5022 21.3788 59.225 26.4845 61.0421C27.1222 61.3202 27.8098 61.4662 28.5055 61.4712C29.2013 61.4763 29.8908 61.3403 30.5326 61.0716C31.1743 60.8028 31.755 60.4067 32.2395 59.9074C32.7239 59.408 33.1022 58.8156 33.3514 58.166L31.5455 50.0505Z" fill="#F7A9A0"/>
<path d="M22.0046 46.9624C21.9266 46.9624 21.9043 47.0627 22.0046 47.0962C25.5831 48.4785 27.5005 51.7559 28.8605 55.156C27.7457 53.8517 26.33 53.1494 24.5909 54.4425C24.5017 54.5094 24.5909 54.6543 24.6912 54.632C25.3131 54.4227 25.9846 54.411 26.6133 54.5987C27.2421 54.7863 27.7973 55.164 28.2028 55.6799C28.8662 56.5553 29.4378 57.4966 29.9084 58.4891C30.0867 58.8013 30.6553 58.6229 30.5326 58.255L30.5326 58.177C30.5438 53.6399 26.9319 47.3414 22.0046 46.9624Z" fill="#263238"/>
<path d="M50.6991 7.44384C46.9714 5.91357 43.0387 4.94072 39.0275 4.55659C34.5684 4.19986 20.5223 5.95005 17.2894 8.92649C14.0566 11.9029 13.7891 25.2021 13.7891 27.1418C13.7891 29.0815 15.2048 40.7643 19.5859 43.384C23.9669 46.0037 23.4207 26.094 29.8083 19.1712C36.1959 12.2485 50.6991 7.44384 50.6991 7.44384Z" fill="#F35E79"/>
<path opacity="0.1" d="M50.6975 7.44381C50.6975 7.44381 36.2055 12.2596 29.8178 19.1823C23.4302 26.1051 23.9541 46.0149 19.5731 43.3951C17.6445 42.2804 16.6524 40.4299 15.7383 37.3531C16.3514 31.4894 18.28 22.3594 22.8282 15.8826C27.0978 9.80713 34.7674 6.47395 43.0836 5.13623C45.6814 5.69206 48.2282 6.46395 50.6975 7.44381Z" fill="black"/>
<path d="M21.3009 55.1228C21.4235 49.7942 26.1501 35.3468 31.423 26.9415C36.6959 18.5361 53.1053 13.018 55.4463 13.018C61.1093 13.0737 63.1048 14.6901 63.9743 14.1327C64.8438 13.5754 58.8352 9.67366 57.1965 8.73725C55.5578 7.80085 51.1879 5.81655 48.7354 5.99491C46.2829 6.17327 31.2223 8.39167 26.0275 15.1026C20.8327 21.8135 13.8988 40.2741 15.5487 44.8335C15.9389 45.9483 17.4549 46.5726 18.0012 48.1221C18.7146 50.1621 19.2609 52.5812 19.952 53.9523C20.4983 55.1117 21.2897 55.5799 21.3009 55.1228Z" fill="#F35E79"/>
<path d="M32.5506 23.2179C31.216 22.4904 29.9478 21.6474 28.7604 20.6985C27.5199 19.7717 26.3968 18.6974 25.4161 17.4991C25.3492 17.4099 25.2042 17.4991 25.2711 17.5883C26.0807 18.9542 27.1045 20.1812 28.3033 21.2224C29.5194 22.2154 30.9109 22.9716 32.4057 23.452C32.6063 23.5523 32.6955 23.307 32.5506 23.2179Z" fill="#263238"/>
<path d="M21 49.8052C20.8328 49.4262 20.5652 49.1029 20.3646 48.6904C20.1337 48.2842 19.9468 47.8544 19.8072 47.4084C19.6615 46.5332 19.4184 45.6769 19.0826 44.8556C18.7079 44.2377 18.2627 43.6653 17.756 43.15C17.1538 42.5963 16.7603 41.8525 16.6413 41.0431C16.6413 40.9316 16.4629 40.9428 16.4629 41.0431C16.5409 42.6484 17.678 43.7409 18.436 45.0563C18.7991 45.9369 19.0863 46.8468 19.2944 47.7763C19.5491 48.6379 20.0773 49.3932 20.7993 49.9278C20.8885 50.0727 21.0558 49.9501 21 49.8052Z" fill="#263238"/>
<path d="M22.5608 44.0085C22.0257 43.4177 21.446 42.8937 20.9778 42.2695C20.5227 41.6573 20.1129 41.0127 19.7516 40.3409C19.3837 39.6832 19.0716 39.0032 18.7149 38.3343C18.3581 37.6655 17.7896 36.8071 17.4106 36.0044C17.4106 35.9041 17.2099 36.0045 17.2545 36.1048C17.6447 36.9297 17.9011 37.8327 18.2578 38.6799C18.5869 39.4075 18.9592 40.1148 19.3726 40.798C19.7598 41.4579 20.2117 42.0778 20.7214 42.6485C21.2086 43.2432 21.8116 43.7324 22.4939 44.0865C22.5497 44.1088 22.5943 44.0419 22.5608 44.0085Z" fill="#263238"/>
<path d="M24.2348 38.7243C23.076 37.8351 22.0511 36.7839 21.1915 35.603C20.3666 34.4882 19.5974 33.2285 18.8616 32.0246C18.8059 31.9354 18.661 32.0246 18.6944 32.0915C19.2024 33.4848 19.8801 34.8102 20.7121 36.0377C21.1282 36.6263 21.6107 37.165 22.1502 37.643C22.7563 38.1326 23.4187 38.548 24.1233 38.8804C24.2348 38.925 24.324 38.7912 24.2348 38.7243Z" fill="#263238"/>
<path d="M26.1047 33.6633C25.5333 33.3108 25.034 32.8531 24.6332 32.3144C24.1427 31.7347 23.6745 31.1996 23.2175 30.5531C22.7604 29.9065 22.3256 29.4383 21.8909 28.8363C21.4145 28.2837 21.0577 27.6385 20.843 26.9412C20.8367 26.9241 20.8253 26.9094 20.8103 26.899C20.7954 26.8886 20.7776 26.8831 20.7594 26.8831C20.7412 26.8831 20.7234 26.8886 20.7085 26.899C20.6935 26.9094 20.6821 26.9241 20.6758 26.9412C20.769 27.6653 21.0079 28.3631 21.3781 28.9924C21.7535 29.7015 22.1899 30.3766 22.6824 31.0101C23.1702 31.6321 23.6951 32.224 24.2542 32.7826C24.7116 33.3277 25.3271 33.7173 26.0155 33.8974C26.1493 33.9085 26.2385 33.7302 26.1047 33.6633Z" fill="#263238"/>
<path d="M27.323 27.298C26.8102 26.8409 26.2973 26.3727 25.8291 25.8822C25.3609 25.3917 24.8927 24.8566 24.458 24.3327C24.0232 23.8087 23.5104 23.2179 23.0868 22.6605C23.0735 22.6398 23.0525 22.6253 23.0285 22.62C23.0045 22.6148 22.9793 22.6194 22.9586 22.6327C22.9379 22.646 22.9234 22.6669 22.9181 22.691C22.9129 22.715 22.9174 22.7402 22.9308 22.7609C23.2514 23.4141 23.6242 24.0404 24.0455 24.6337C24.438 25.2158 24.874 25.7673 25.3498 26.2835C25.8322 26.8014 26.346 27.2891 26.8882 27.7439C27.3995 28.229 28.0019 28.608 28.6607 28.8587C28.685 28.8632 28.71 28.8608 28.7331 28.852C28.7561 28.8431 28.7763 28.828 28.7913 28.8084C28.8063 28.7888 28.8156 28.7654 28.8181 28.7408C28.8206 28.7162 28.8163 28.6914 28.8056 28.6691C28.3572 28.1649 27.8607 27.7056 27.323 27.298Z" fill="#263238"/>
<path d="M36.4972 20.0185C35.9636 19.381 35.3942 18.7743 34.7916 18.2015C34.171 17.6199 33.5158 17.0764 32.8296 16.5739C31.5155 15.5581 30.0907 14.6942 28.5823 13.9988C28.4932 13.9988 28.3928 14.0657 28.482 14.1325C31.0906 16.1614 33.7883 18.09 36.3746 20.1412C36.4972 20.208 36.553 20.0966 36.4972 20.0185Z" fill="#263238"/>
<path d="M39.4711 15.3254C38.9072 14.7129 38.2751 14.1668 37.5872 13.6978C36.1251 12.7569 34.5621 11.9828 32.9274 11.3903C32.9067 11.3784 32.8822 11.3753 32.8592 11.3816C32.8362 11.3879 32.8166 11.403 32.8048 11.4237C32.793 11.4444 32.7899 11.4689 32.7961 11.4919C32.8024 11.5149 32.8176 11.5345 32.8383 11.5463C34.254 12.3936 35.6921 13.2185 37.0632 14.1437C37.7427 14.5953 38.3977 15.0828 39.0252 15.6041C39.6495 16.1392 40.14 16.7969 40.742 17.3543C40.742 17.3543 40.8757 17.3543 40.8535 17.2874C40.5247 16.5497 40.0551 15.8833 39.4711 15.3254Z" fill="#263238"/>
<path d="M43.7854 13.0178C43.2668 12.4134 42.6837 11.8676 42.0464 11.3902C40.8464 10.4738 39.5012 9.76537 38.0666 9.29443C37.9663 9.29443 37.9106 9.4059 37.9998 9.46164C39.3275 10.1777 40.5917 11.0057 41.7788 11.9364C42.3697 12.4046 42.8936 12.9063 43.5179 13.3856C44.1421 13.865 44.6326 14.5004 45.2012 14.9352C45.213 14.9455 45.2285 14.9507 45.2441 14.9497C45.2598 14.9486 45.2744 14.9414 45.2848 14.9296C45.2951 14.9178 45.3003 14.9023 45.2993 14.8866C45.2983 14.871 45.291 14.8563 45.2792 14.846C44.8439 14.188 44.3434 13.5755 43.7854 13.0178Z" fill="#263238"/>
<path d="M46.8523 10.242C46.2727 9.81837 45.7376 9.41706 45.0799 9.02689C44.5036 8.61053 43.8636 8.29052 43.1847 8.07935C43.0844 8.07935 43.0398 8.19082 43.1179 8.23541C44.2326 9.0492 45.3474 9.88527 46.4622 10.7213C47.4312 11.5636 48.3092 12.5052 49.0819 13.5306C49.0819 13.5306 49.2045 13.5306 49.1822 13.4748C48.7521 12.1855 47.9394 11.0578 46.8523 10.242Z" fill="#263238"/>
<path d="M50.7979 9.19417C49.7254 8.28861 48.4874 7.59959 47.1526 7.16528C47.0523 7.16528 46.9965 7.28791 47.0857 7.32135C48.3087 7.88774 49.4368 8.6398 50.43 9.55089C51.4322 10.4578 52.333 11.4707 53.1166 12.5719C53.1166 12.6277 53.2615 12.5719 53.2281 12.5719C52.6895 11.2736 51.8578 10.1175 50.7979 9.19417Z" fill="#263238"/>
<path d="M56.1156 11.3231C55.9733 11.0502 55.8093 10.7892 55.6251 10.5427C55.2601 10.0348 54.8415 9.56762 54.3765 9.14926C53.4112 8.32229 52.3656 7.59406 51.2552 6.97546C51.166 6.91973 51.0768 7.07579 51.1771 7.13153C52.2394 7.75577 53.2236 8.50421 54.109 9.36107C54.5393 9.78785 54.9415 10.2422 55.3129 10.7211C55.4913 10.9552 55.6585 11.2004 55.8146 11.4457C55.9507 11.7055 56.1112 11.9519 56.2939 12.1814C56.3069 12.1918 56.3224 12.1984 56.3389 12.2004C56.3553 12.2024 56.372 12.1998 56.3871 12.1928C56.4021 12.1859 56.415 12.1749 56.4241 12.161C56.4332 12.1472 56.4383 12.1311 56.4388 12.1146C56.3832 11.8323 56.2734 11.5636 56.1156 11.3231Z" fill="#263238"/>
<path d="M59.3277 11.4575C59.0088 11.0654 58.6663 10.6931 58.3021 10.3427C57.9538 9.97979 57.5813 9.64087 57.1873 9.32826C56.7748 9.01612 56.3401 8.70398 55.9388 8.36955C55.8496 8.29152 55.7381 8.43644 55.8384 8.51448C56.2571 8.83464 56.6486 9.18885 57.0089 9.57351L58.0568 10.6883L59.1047 11.803C59.4333 12.1935 59.7832 12.5657 60.1526 12.9178C60.2083 12.9736 60.2975 12.9178 60.2641 12.8286C60.0043 12.338 59.6902 11.878 59.3277 11.4575Z" fill="#263238"/>
</g>
</svg>
