<svg width="140" height="140" viewBox="0 0 140 140" fill="none" xmlns="http://www.w3.org/2000/svg">
<path fill-rule="evenodd" clip-rule="evenodd" d="M32.3233 63.4396C31.2817 63.7812 30.5733 64.4476 30.1813 65.2372C29.7893 66.024 29.7193 66.934 30.4669 68.3592C31.2145 69.7844 32.7769 71.722 34.5381 74.0936C36.2965 76.4652 38.2509 79.268 39.6733 81.424C41.0957 83.58 41.9833 85.0892 42.5153 86.3408C43.0473 87.5924 43.2181 88.5836 43.3441 89.432C43.4701 90.2776 43.5513 90.9804 43.2461 91.5068C42.9409 92.0332 42.2493 92.386 41.2161 92.736C40.1829 93.086 38.8109 93.436 37.2793 93.6236C35.7477 93.814 34.0621 93.8448 32.1945 93.9484C30.3269 94.052 28.2773 94.2256 26.5189 94.7128C24.7577 95.2028 23.2849 96.0064 22.5541 96.5188C21.8233 97.0312 21.8317 97.2552 21.9353 98.3304C22.0361 99.4056 22.2321 101.338 22.4953 102.724C22.7585 104.112 23.0889 104.955 23.7021 106.235C24.3181 107.514 25.2169 109.228 25.9309 110.877C26.6449 112.526 27.1741 114.108 27.5045 115.534C27.8349 116.956 27.9637 118.222 28.0225 119.048C28.0813 119.876 28.0673 120.266 28.2801 120.604C28.4901 120.943 28.9241 121.229 29.9993 121.12C31.0745 121.008 32.7937 120.501 35.5377 118.86C38.2789 117.219 42.0449 114.444 44.4697 112.647C46.8945 110.849 47.9753 110.034 48.7089 109.648C49.4453 109.262 49.8345 109.309 50.3329 109.981C50.8313 110.653 51.4361 111.95 52.0241 113.313C52.6121 114.677 53.1777 116.108 54.0737 118.726C54.9697 121.341 56.1961 125.143 57.3077 128.422C58.4221 131.701 59.4245 134.456 60.7097 136.072C61.9949 137.687 63.5629 138.163 64.9097 137.813C66.2565 137.463 67.3849 136.29 68.6813 134.621C69.9777 132.95 71.4421 130.785 72.5537 128.232C73.6653 125.678 74.4213 122.741 74.7209 119.745C75.0205 116.749 74.8609 113.697 74.3765 110.718C73.8921 107.738 73.0801 104.838 72.5341 102.74C71.9881 100.646 71.7053 99.3608 71.6157 98.6412C71.5289 97.9244 71.6353 97.7732 72.3577 97.2608C73.0801 96.7484 74.4185 95.8692 75.5329 95.0712C76.6473 94.2732 77.5405 93.5508 78.4561 92.3188C79.3717 91.0868 80.3125 89.348 80.5925 88.3176C80.8725 87.2872 80.4917 86.968 79.4949 86.6908C78.4981 86.4136 76.8881 86.1756 75.4545 86.0272C74.0209 85.8788 72.7637 85.8228 71.2909 86.0412C69.8209 86.2596 68.1353 86.7496 67.1189 86.8616C66.1025 86.9736 65.7525 86.7076 64.6913 84.9884C63.6301 83.2692 61.8577 80.0968 60.4213 77.8736C58.9849 75.6476 57.8845 74.3708 56.8037 73.3152C55.7229 72.2596 54.6589 71.4252 53.1665 70.4508C51.6741 69.4764 49.7505 68.3592 47.6813 67.3148C45.6121 66.2704 43.3945 65.2988 41.4429 64.6016C39.4885 63.9044 37.8001 63.4872 36.2713 63.2856C34.7341 63.0812 33.3621 63.098 32.3233 63.4396Z" fill="#FDA5B5"/>
<path fill-rule="evenodd" clip-rule="evenodd" d="M53.5439 4.96717C52.1803 5.41517 51.2507 6.28877 50.7383 7.31917C50.2259 8.34957 50.1335 9.53957 51.1107 11.4044C52.0879 13.2692 54.1375 15.8088 56.4391 18.9112C58.7435 22.0164 61.3027 25.6872 63.1619 28.5096C65.0239 31.332 66.1859 33.3088 66.8803 34.9468C67.5747 36.5848 67.8015 37.884 67.9667 38.9928C68.1319 40.1016 68.2383 41.02 67.8351 41.7088C67.4347 42.3976 66.5275 42.8596 65.1751 43.3188C63.8227 43.778 62.0251 44.2344 60.0231 44.4808C58.0211 44.73 55.8119 44.772 53.3675 44.9064C50.9231 45.0408 48.2407 45.2676 45.9335 45.9088C43.6291 46.55 41.6999 47.6028 40.7423 48.2748C39.7847 48.9468 39.7987 49.238 39.9331 50.6464C40.0675 52.0548 40.3223 54.5832 40.6639 56.3976C41.0083 58.2148 41.4423 59.3208 42.2459 60.9952C43.0523 62.6696 44.2283 64.9152 45.1635 67.074C46.0987 69.2328 46.7903 71.3048 47.2215 73.1696C47.6527 75.0344 47.8235 76.6892 47.8991 77.7728C47.9775 78.8564 47.9607 79.3688 48.2351 79.8112C48.5095 80.2536 49.0779 80.6288 50.4863 80.4832C51.8947 80.3376 54.1459 79.674 57.7355 77.5236C61.3251 75.3732 66.2559 71.7416 69.4283 69.3896C72.6007 67.0376 74.0175 65.968 74.9807 65.464C75.9439 64.96 76.4563 65.0188 77.1087 65.898C77.7611 66.7772 78.5535 68.474 79.3235 70.2604C80.0907 72.0468 80.8355 73.92 82.0087 77.3444C83.1819 80.7688 84.7863 85.7472 86.2423 90.0396C87.7011 94.332 89.0115 97.9412 90.6943 100.055C92.3771 102.169 94.4295 102.794 96.1963 102.337C97.9603 101.881 99.4359 100.344 101.133 98.1568C102.829 95.97 104.747 93.1336 106.201 89.7904C107.657 86.4472 108.645 82.6 109.037 78.6772C109.429 74.7544 109.222 70.7588 108.586 66.8584C107.951 62.9608 106.889 59.1584 106.175 56.4172C105.459 53.676 105.089 51.9904 104.974 51.0524C104.859 50.1116 104.999 49.9156 105.946 49.2436C106.892 48.5716 108.645 47.4236 110.104 46.3764C111.563 45.3292 112.73 44.3856 113.929 42.7756C115.127 41.1628 116.359 38.8836 116.726 37.5368C117.093 36.1872 116.591 35.7728 115.289 35.406C113.985 35.042 111.876 34.7312 110 34.5352C108.121 34.342 106.475 34.2664 104.549 34.552C102.622 34.8376 100.416 35.4816 99.0859 35.6272C97.7559 35.7728 97.2967 35.4256 95.9079 33.1744C94.5191 30.9232 92.1979 26.7708 90.3163 23.8588C88.4347 20.9468 86.9955 19.2724 85.5787 17.892C84.1619 16.5088 82.7703 15.4168 80.8159 14.14C78.8615 12.8632 76.3443 11.4016 73.6339 10.0352C70.9235 8.66877 68.0227 7.39477 65.4635 6.48197C62.9071 5.57197 60.6951 5.02037 58.6903 4.75717C56.7023 4.49677 54.9075 4.51917 53.5439 4.96717Z" fill="#FDA5B5"/>
<path d="M50.4673 76.2496C49.7785 76.4792 49.3724 76.8908 48.8852 77.1624C48.4148 77.4228 47.9445 77.5348 47.4209 77.3528C46.7741 77.126 46.5752 76.6808 46.7852 76.0312C47.0568 75.1968 47.6896 74.62 48.1992 73.9536C48.2804 73.8472 48.426 73.7744 48.356 73.5336C48.0228 73.4468 47.6784 73.5392 47.3452 73.6512C47.1268 73.724 46.914 73.7884 46.6844 73.7772C45.892 73.7408 45.5588 73.178 46.0152 72.5424C46.4044 71.9964 46.8944 71.5176 47.3592 71.0304C47.4684 70.9156 47.6504 70.8624 47.8352 70.8876C48.0004 70.91 48.1013 70.9968 48.0901 71.1648C48.0817 71.2908 48.0985 71.3916 47.8717 71.4196C47.0821 71.5204 47.1268 72.3184 46.8328 72.8168C46.69 73.0632 47.0261 73.0968 47.2165 73.0604C48.0845 72.898 48.9105 72.6208 49.6357 72.0916C50.1397 71.7248 50.6465 71.3636 51.1533 71.0052C51.3605 70.8596 51.5705 70.714 51.7889 70.588C51.9457 70.4956 52.136 70.4984 52.2536 70.6412C52.36 70.7728 52.2341 70.8988 52.1557 71.0164C52.0269 71.2124 51.8476 71.3384 51.6544 71.4644C51.3492 71.666 51.0692 71.9096 50.7584 72.1084C49.8372 72.6964 49.21 73.5924 48.4652 74.354C47.9724 74.8608 47.5972 75.5188 47.432 76.2552C47.3564 76.5884 47.4769 76.7424 47.7849 76.7844C48.1601 76.8348 48.5101 76.776 48.8433 76.5688C49.7309 76.0172 50.6689 75.5384 51.5089 74.9252C53.5977 73.402 55.9525 72.3464 58.1589 71.0276C58.4221 70.8708 58.6908 70.7112 59.0576 70.9156C58.7468 71.5316 58.212 71.8956 57.652 72.2148C55.8096 73.2676 54.0597 74.4576 52.3181 75.6672C51.3129 76.3644 50.4364 77.2072 49.6636 78.1508C49.3444 78.54 49.0981 78.9964 49.0141 79.5116C48.9189 80.1024 49.1737 80.4356 49.7617 80.4832C50.4225 80.5336 51.0496 80.3488 51.6712 80.164C53.018 79.7636 54.1744 78.9908 55.342 78.246C58.3436 76.3336 61.3788 74.466 64.3356 72.4836C66.752 70.8624 69.244 69.3588 71.596 67.6396C72.8028 66.7576 74.046 65.9288 75.2752 65.0776C75.5972 64.8564 75.9304 64.6688 76.1348 64.2964C76.2244 64.134 76.4568 63.98 76.7032 63.9632C76.8572 63.952 76.9916 63.9968 77.0504 64.1452C77.098 64.2656 77.014 64.3664 76.9272 64.428C76.4708 64.7584 76.0144 65.0916 75.5412 65.4024C72.758 67.2336 70.07 69.1992 67.3064 71.0612C66.1892 71.8144 65.1196 72.6544 64.0164 73.4356C63.4704 73.822 62.8909 74.1636 62.3365 74.5416C61.5217 75.0932 60.7824 75.74 60.0208 76.3644C59.2116 77.028 58.3156 77.6524 57.3244 78.0416C56.5768 78.3356 55.8768 78.7052 55.2468 79.17C54.2752 79.884 53.1468 80.248 52.0884 80.7688C51.1868 81.214 50.2405 81.228 49.2773 81.144C48.1377 81.046 47.6252 80.0352 48.272 79.0944C48.7172 78.442 49.1708 77.7896 49.7168 77.2128C49.966 76.944 50.2433 76.6976 50.4673 76.2496Z" fill="#F35E79"/>
<path d="M116.317 38.7772C116.141 38.7828 115.961 38.696 115.858 38.4664C115.757 38.2452 115.693 38.0184 115.673 37.7748C115.617 37.1364 115.485 36.5344 114.97 36.078C114.825 35.9492 114.738 35.7644 114.869 35.5488C115.021 35.2996 115.231 35.1624 115.522 35.21C115.908 35.2716 116.289 35.3584 116.675 35.4284C117.823 35.6328 118.969 35.6832 120.114 35.3976C120.293 35.3528 120.461 35.4004 120.629 35.4508C120.8 35.504 120.901 35.602 120.797 35.7896C120.649 36.0668 120.565 36.3524 120.167 36.456C118.955 36.7724 118.011 37.5648 117.098 38.374C116.689 38.7324 116.65 38.78 116.317 38.7772Z" fill="#F35E79"/>
<path d="M109.279 41.5884C109.242 41.2692 109.405 40.9836 109.62 40.7316C109.953 40.3396 110.385 40.0848 110.889 39.9756C111.684 39.802 112.557 40.376 112.594 41.2356C112.605 41.5296 112.527 41.79 112.311 42.0084C111.955 42.3668 111.507 42.5964 111.113 42.9044C111.065 42.9408 110.992 42.9548 110.931 42.9688C110.175 43.1368 109.276 42.3976 109.279 41.5884Z" fill="black"/>
<path d="M82.9741 86.6152C82.8621 86.758 82.6101 87.1052 82.2321 87.5588C81.8541 88.0152 81.2577 88.5472 80.8069 89.0736C80.5997 89.3172 79.7261 89.3592 79.4601 89.1716C79.2305 89.012 79.1969 88.8076 79.3873 88.62C79.7625 88.2448 79.7401 87.8556 79.4825 87.4384C79.3285 87.1892 79.3509 86.9484 79.4937 86.6964C79.5665 86.5676 79.6281 86.4808 79.7877 86.506C80.9721 86.674 81.4229 86.6824 82.4141 86.0552C82.9741 85.7752 83.0861 86.4752 82.9741 86.6152Z" fill="#F35E79"/>
<path d="M73.7625 92.3804C73.5609 91.8764 73.9921 91.4956 74.3309 91.1736C74.5997 90.916 74.9637 90.7172 75.2885 90.5016C75.5321 90.3392 75.7617 90.3868 75.9605 90.5212C76.1649 90.6556 76.3077 90.8852 76.2545 91.1372C76.1117 91.8232 75.7449 92.4028 75.2213 92.8424C74.7677 93.2232 73.9473 92.974 73.7625 92.3804Z" fill="black"/>
<path d="M91.6797 99.0136C91.2625 99.246 90.9657 99.4644 90.6773 99.6968C89.8261 100.386 89.0589 100.134 88.8209 99.0668C88.7089 98.5684 88.7509 98.056 88.8601 97.5492C89.1289 96.2948 89.5881 95.1048 90.0893 93.926C90.1425 93.8 90.2153 93.674 90.1537 93.4836C89.7617 93.6264 89.5657 93.982 89.3053 94.2508C88.8937 94.6736 88.4513 95.0292 87.8717 95.2028C87.5917 95.2868 87.4377 95.2336 87.3145 94.9732C87.1521 94.626 87.0877 94.2676 87.1297 93.8924C87.2949 92.4028 87.7205 90.9804 88.2665 89.5916C88.4513 89.1184 88.7257 88.6732 88.7005 88.1328C88.6921 87.9228 88.8293 87.7688 89.0365 87.7548C89.2577 87.7408 89.3501 87.9256 89.4089 88.1076C89.4957 88.368 89.4061 88.606 89.3221 88.8524C89.0533 89.6448 88.6137 90.37 88.4177 91.1904C88.2273 91.9828 88.0537 92.7752 87.8661 93.5676C87.8269 93.7328 87.8269 93.884 87.8885 94.0436C87.9809 94.2732 88.1349 94.3348 88.3141 94.1724C88.8629 93.674 89.4509 93.2148 89.9129 92.6296C90.2293 92.232 90.5065 91.8008 90.8173 91.3976C91.0301 91.1204 91.2569 90.86 91.3409 90.5044C91.3717 90.3756 91.4697 90.258 91.5565 90.1488C91.6685 90.006 91.8253 89.9612 91.9933 90.0452C92.1389 90.118 92.1669 90.258 92.1417 90.4036C92.0661 90.8152 92.0409 91.2492 91.8953 91.6356C91.6405 92.3076 91.3493 92.9684 91.0021 93.5956C90.8061 93.9512 90.7361 94.3348 90.5821 94.696C90.1873 95.6368 89.7421 96.5608 89.5965 97.5912C89.5377 98.014 89.5377 98.4256 89.6217 98.8372C89.7057 99.2572 89.9549 99.3776 90.3273 99.1676C90.5485 99.0444 90.7305 98.8512 90.9433 98.7084C92.3181 97.7928 93.1217 96.4488 93.7517 94.976C93.7881 94.892 93.8021 94.7884 93.8581 94.7212C94.0065 94.5532 94.1297 94.304 94.4181 94.3936C94.7149 94.486 94.5553 94.7324 94.5749 94.9256C94.6533 95.648 94.1829 96.1492 93.8553 96.698C93.2953 97.6388 92.8865 98.6468 92.4329 99.638C92.0185 100.542 91.9905 101.534 91.6461 102.449C91.4697 102.914 91.4781 103.452 91.4137 103.958C91.3773 104.241 91.4865 104.373 91.8001 104.392C92.2117 104.418 92.5897 104.289 92.9621 104.191C94.3761 103.816 95.6193 103.113 96.7281 102.15C97.5765 101.413 98.3101 100.573 99.0577 99.7472C100.091 98.6076 100.928 97.314 101.827 96.0708C102.208 95.5416 102.569 95.0012 102.829 94.3992C102.899 94.234 103.02 94.1388 103.188 94.0968C103.42 94.038 103.58 94.1388 103.563 94.3656C103.529 94.7996 103.493 95.2448 103.277 95.6396C103.202 95.7768 103.126 95.9588 102.936 95.9476C102.56 95.9308 102.415 96.2052 102.238 96.446C101.421 97.5492 100.659 98.7 99.7745 99.7444C98.7861 100.912 97.7333 102.026 96.5657 103.037C95.5521 103.914 94.3733 104.426 93.1721 104.916C92.6009 105.148 91.9849 105.325 91.3437 105.308C90.8145 105.291 90.6997 105.196 90.6157 104.681C90.5513 104.286 90.5765 103.886 90.6549 103.499C90.8733 102.43 91.1141 101.363 91.3493 100.296C91.4417 99.904 91.7105 99.554 91.6797 99.0136Z" fill="#F35E79"/>
</svg>
