<svg width="101" height="100" viewBox="0 0 101 100" fill="none" xmlns="http://www.w3.org/2000/svg">
<mask id="mask0_306_313" style="mask-type:alpha" maskUnits="userSpaceOnUse" x="0" y="0" width="101" height="100">
<circle cx="50.5" cy="50" r="50" fill="#D9D9D9"/>
</mask>
<g mask="url(#mask0_306_313)">
<rect x="-18.0488" y="-20.9678" width="137.097" height="166.129" fill="#FDBD04"/>
<path d="M101.676 109.569C101.714 109.793 101.668 110.023 101.547 110.215C101.426 110.408 101.238 110.549 101.02 110.611L97.3533 111.041C93.4752 101.999 89.448 94.8589 90.5562 97.6739C92.2576 102.089 93.3288 106.722 93.7384 111.436L86.4895 112.155C82.6461 96.0911 78.1659 84.2746 78.6311 87.9402C80.497 102.829 79.9779 107.667 79.3443 112.838C61.8379 114.518 38.8661 116.425 22.2334 117.442C19.736 108.595 17.4479 98.9766 17.1848 99.6794C15.2441 104.827 15.0949 112.183 15.3955 117.838C10.0879 118.114 5.85729 118.243 3.20619 118.111C3.20619 118.111 1.48866 110.64 1.15479 108.174C0.273083 101.878 0.495595 95.4759 1.81225 89.2561C3.40427 83.1092 5.60527 77.1362 8.38259 71.426L8.37987 71.3041C10.0658 67.4998 11.3096 63.5146 12.0866 59.4266C12.0896 59.3976 12.089 59.3684 12.0847 59.3396C12.608 56.3593 12.8786 53.3402 12.8935 50.3143C12.9594 39.2325 18.176 29.4293 27.7003 26.0631C44.8477 6.75964 63.7138 13.6901 70.1569 27.5882C70.7797 28.9506 71.4067 30.5046 72.0025 32.2161C74.286 38.5066 76.4903 46.7154 78.4422 52.9785C79.1793 55.4585 80.0598 57.8937 81.0791 60.2717C86.7039 71.8535 97.7106 77.9143 101.676 109.569Z" fill="#5D1106"/>
<path d="M23.8363 29.3375C20.7856 31.0943 18.2421 33.6114 16.4535 36.6435C14.6649 39.6756 13.6923 43.1193 13.6304 46.6391C13.6385 51.3022 13.0753 55.9487 11.9535 60.4748C10.3768 64.8873 8.16303 69.0455 5.38246 72.817C1.04654 78.6781 -1.42491 85.7084 -1.71035 92.9934C-1.89586 101.064 -0.935003 110.537 2.06952 117.909C-0.425999 109.457 -1.27444 100.605 -0.429648 91.8323C0.40317 83.1027 4.68147 77.3101 8.98828 70.4542C12.4772 65.0033 14.4867 58.738 14.8191 52.2747C15.0434 48.2801 14.7241 44.1234 15.9978 40.3143C17.4987 35.7511 20.8808 32.7312 24.2702 30.0421C24.7864 29.7518 24.2999 29.031 23.8363 29.3375Z" fill="#5D1106"/>
<path d="M92.8133 72.4141C87.9217 66.3561 82.894 61.2244 79.7606 53.5417C76.9233 46.6363 75.0665 39.1689 72.1758 32.2124C72.1731 32.0906 71.9843 32.2167 72.0191 32.2159C76.5814 44.5881 78.1184 57.237 86.3778 67.4359C90.8572 72.9805 95.3273 78.1072 98.4749 84.8663C101.706 91.9736 103.646 99.5994 104.205 107.387C104.196 107.416 104.195 107.446 104.201 107.476C104.206 107.505 104.219 107.533 104.237 107.557C104.255 107.581 104.279 107.6 104.306 107.613C104.333 107.626 104.363 107.632 104.393 107.631C104.423 107.631 104.453 107.623 104.479 107.609C104.506 107.595 104.529 107.574 104.546 107.55C104.563 107.525 104.574 107.497 104.579 107.467C104.583 107.437 104.58 107.407 104.57 107.379C104.878 94.705 100.715 82.3273 92.8133 72.4141Z" fill="#5D1106"/>
<path d="M35.7517 97.2087C36.5046 98.9341 47.3997 109.353 55.7374 107.459C58.4414 106.841 55.7203 91.8844 55.7203 91.8844L55.6946 90.7351L56.4151 74.6385L36.1391 66.2064L33.2402 65.1213C33.2402 65.1213 33.3391 69.5443 33.462 75.0469L33.501 76.7882C33.5192 77.6067 33.5399 78.5296 33.557 79.2957C33.5741 80.0619 33.585 80.5495 33.5998 81.2112C33.6146 81.8729 33.6294 82.5346 33.6442 83.1963C34.0206 87.9104 34.7248 92.5925 35.7517 97.2087Z" fill="#FAC7C1"/>
<path d="M33.5846 75.044C35.9236 79.1105 39.1187 82.6199 42.9486 85.329C46.7785 88.0381 51.1516 89.8821 55.7649 90.7334L56.4854 74.6368L36.2094 66.2047L33.3105 65.1196C33.3105 65.1196 33.4094 69.5426 33.5846 75.044Z" fill="#263238"/>
<path d="M75.7458 50.0594C79.3171 78.1161 62.9203 83.4478 56.8737 84.1752C51.3839 84.8728 32.534 86.4613 26.1364 59.0079C19.7388 31.5545 31.5925 20.9409 44.0861 18.6931C56.5797 16.4452 72.1746 22.0027 75.7458 50.0594Z" fill="#FAC7C1"/>
<path d="M69.3582 44.1398C68.7103 44.1249 68.0637 44.0754 67.4211 43.9914C66.7236 44.0338 66.0321 43.8407 65.4576 43.443C65.3029 43.2846 65.2045 43.0798 65.1775 42.8601C65.1506 42.6403 65.1966 42.4178 65.3084 42.2268C65.5865 41.8793 65.9531 41.6133 66.3697 41.4569C66.7862 41.3004 67.2373 41.2592 67.6754 41.3376C68.5838 41.3574 69.4534 41.7099 70.1192 42.3283C70.2676 42.4776 70.3682 42.6676 70.4085 42.8742C70.4487 43.0808 70.4267 43.2947 70.3452 43.4888C70.2637 43.6829 70.1263 43.8484 69.9506 43.9643C69.7749 44.0802 69.5687 44.1412 69.3582 44.1398Z" fill="#263238"/>
<path d="M50.8964 46.695C51.525 46.5204 52.1427 46.3088 52.7464 46.0614C53.4157 45.9222 54.0202 45.5656 54.4659 45.0473C54.5807 44.8571 54.6284 44.6339 54.6014 44.4134C54.5743 44.193 54.4742 43.9879 54.3168 43.8311C53.9581 43.5698 53.5372 43.407 53.096 43.3587C52.6548 43.3105 52.2086 43.3786 51.8019 43.5563C50.924 43.8052 50.1678 44.3677 49.6769 45.1369C49.5682 45.3209 49.5176 45.5333 49.5315 45.7465C49.5455 45.9597 49.6234 46.1638 49.7551 46.332C49.8867 46.5003 50.0661 46.6249 50.2697 46.6897C50.4733 46.7544 50.6918 46.7563 50.8964 46.695Z" fill="#263238"/>
<path d="M49.76 42.6461L49.2764 42.4968C48.7099 42.3219 48.1387 42.7534 48.1519 43.346C48.1593 43.6749 48.3518 43.9714 48.6493 44.1119L49.1069 44.3281C49.5585 44.5415 50.0977 44.3483 50.311 43.8966C50.5461 43.3989 50.2859 42.8084 49.76 42.6461Z" fill="#DBDDF6"/>
<path d="M51.4387 48.0726L51.4256 47.5667C51.4103 46.974 51.9801 46.5406 52.5471 46.7135C52.8618 46.8095 53.0952 47.075 53.1502 47.3993L53.2346 47.8983C53.318 48.3908 52.9863 48.8577 52.4938 48.9411C51.9511 49.0329 51.4528 48.6228 51.4387 48.0726Z" fill="#DBDDF6"/>
<path d="M56.0079 53.2882C56.0079 53.2882 55.871 53.3958 55.8904 53.4824C56.2288 55.3739 56.3134 57.602 54.6957 58.4918C54.6957 58.4918 54.6984 58.6137 54.698 58.5963C56.7751 57.9924 56.6393 55.0337 56.0079 53.2882Z" fill="#263238"/>
<path d="M54.0008 51.556C50.9051 51.7994 51.6005 57.9687 54.4702 57.7478C57.3399 57.5268 56.6097 51.3584 54.0008 51.556Z" fill="#263238"/>
<path d="M52.8277 52.0179C52.3316 52.4297 51.8763 53.1019 51.2351 53.2556C50.5939 53.4093 49.849 52.8162 49.2789 52.254C49.2789 52.254 49.1744 52.2563 49.1763 52.3434C49.2898 53.5256 49.891 54.6968 51.1807 54.7203C52.4705 54.7437 53.0724 53.6152 53.2367 52.392C53.2665 52.1649 53.0331 51.8565 52.8277 52.0179Z" fill="#263238"/>
<path d="M66.5653 51.6064C66.5653 51.6064 66.722 51.6029 66.7255 51.7596C66.8732 53.6901 67.3571 55.8571 69.1446 56.3223L69.1469 56.4268C66.9849 56.3532 66.3802 53.4572 66.5653 51.6064Z" fill="#263238"/>
<path d="M68.0673 49.4298C71.1212 48.8737 72.0081 55.0387 69.1794 55.5375C66.3508 56.0362 65.4995 49.9053 68.0673 49.4298Z" fill="#263238"/>
<path d="M69.4125 49.6613C69.9407 49.9108 70.5099 50.4381 71.0838 50.3905C71.6577 50.3428 72.1811 49.5994 72.5138 48.8951C72.5138 48.8951 72.6009 48.8931 72.6183 48.8927C72.8189 50.0729 72.6732 51.348 71.5147 51.7398C70.3562 52.1315 69.6034 51.1901 69.1598 50.0502C69.0696 49.9128 69.1834 49.5444 69.4125 49.6613Z" fill="#263238"/>
<path d="M57.9025 68.5774C58.3994 68.9844 58.9006 69.583 59.6672 69.5833C60.3803 69.5325 61.0725 69.3204 61.6917 68.9631C61.6917 68.9631 61.8136 68.9604 61.7811 69.0656C61.5334 69.4608 61.183 69.7814 60.7674 69.9932C60.3518 70.205 59.8865 70.3 59.4212 70.2682C59.0231 70.191 58.6568 69.9977 58.3683 69.7127C58.0798 69.4278 57.8821 69.0639 57.8 68.6668C57.6932 68.5646 57.8313 68.5093 57.9025 68.5774Z" fill="#263238"/>
<path d="M65.0413 60.6647C65.0413 60.6647 65.7834 63.4704 65.9531 64.8256C65.9558 64.9475 65.6443 65.0415 65.1935 65.1387C64.065 65.4927 62.8612 65.5311 61.7124 65.2496C60.5637 64.9682 59.514 64.3777 58.6769 63.5421C58.5697 63.4226 58.6707 63.2635 58.8638 63.3289C60.7272 64.2826 62.8473 64.6138 64.9129 64.2739C64.9043 63.8908 63.465 59.5152 63.6732 59.4757C64.7303 59.4338 65.7881 59.5392 66.8161 59.7888C65.4301 53.8963 63.0747 48.2868 61.8125 42.4786C61.8089 42.4369 61.819 42.3952 61.8413 42.3598C61.8636 42.3244 61.8969 42.2973 61.9361 42.2826C61.9753 42.2679 62.0182 42.2665 62.0582 42.2784C62.0983 42.2904 62.1334 42.3152 62.1581 42.3489C64.8283 48.2974 66.9043 54.4952 68.3557 60.8519C68.4919 61.4935 65.6024 60.8263 65.0413 60.6647Z" fill="#263238"/>
<path d="M64.8552 64.8155C64.2312 65.9631 63.323 66.9312 62.2176 67.6272C61.5996 67.9882 60.8854 68.1502 60.1721 68.091C58.6181 67.9341 58.3962 66.5801 58.456 65.3592C58.5058 64.7166 58.632 64.0821 58.8319 63.4693C60.6443 64.55 62.7552 65.0218 64.8552 64.8155Z" fill="#263238"/>
<path d="M62.2169 67.6275C61.599 67.9886 60.8848 68.1505 60.1715 68.0914C58.6175 67.9344 58.3955 66.5805 58.4554 65.3596C59.2454 65.2644 60.0446 65.4359 60.7261 65.8467C61.4076 66.2576 61.9323 66.8844 62.2169 67.6275Z" fill="#FF9ABB"/>
<path d="M28.2508 57.759C33.4939 58.4955 34.9718 46.6678 34.9718 46.6678C34.9718 46.6678 57.0928 43.3337 59.2711 25.4275C61.9264 32.7795 67.3077 38.8286 74.3006 42.3219C74.3006 42.3219 73.8604 22.6275 58.3505 18.5315C58.3505 18.5315 39.1252 11.1213 27.966 26.3013C16.8067 41.4813 24.7902 57.2614 28.2508 57.759Z" fill="#5D1106"/>
<path d="M59.2937 24.1026C59.4992 26.8791 59.1101 29.6674 58.1524 32.2816C57.2324 34.94 55.7747 37.3803 53.87 39.4506C53.3901 39.9644 52.8834 40.4525 52.3521 40.9131L51.5841 41.6272L50.7267 42.2387C50.1432 42.635 49.5775 43.0483 49.0107 43.4094C48.4438 43.7706 47.7709 44.0643 47.1506 44.3744C46.8403 44.5207 46.5308 44.7018 46.2201 44.8307L45.2353 45.2012L43.2824 45.9068C41.9486 46.2502 40.5958 46.5244 39.2426 46.7811C40.5199 46.2473 41.8356 45.8695 43.078 45.3365L44.9229 44.4764L45.8369 44.0553L46.6962 43.5308C47.2805 43.1694 47.8478 42.8257 48.4154 42.4994C48.983 42.1731 49.4775 41.6917 50.0088 41.2965L50.814 40.6862L51.5305 40.0081C52.0318 39.5697 52.5044 39.0994 52.9451 38.6002C55.6728 35.5992 57.6042 31.962 58.5625 28.0215C58.9169 26.7383 59.1615 25.4272 59.2937 24.1026Z" fill="#5D1106"/>
<path d="M31.4903 60.0733C31.4903 60.0733 24.9748 51.5079 21.0551 53.8604C17.1355 56.2128 22.2953 68.8155 27.069 70.3814C27.6666 70.6219 28.3066 70.7394 28.9506 70.7268C29.5947 70.7142 30.2296 70.5719 30.8174 70.3083C31.4052 70.0447 31.9337 69.6652 32.3715 69.1926C32.8092 68.72 33.1471 68.1639 33.3649 67.5577L31.4903 60.0733Z" fill="#FAC7C1"/>
<path d="M22.6172 57.5015L22.6199 57.6234C25.9746 58.8376 27.8356 61.81 29.1772 64.9334C28.9711 64.6114 28.6978 64.3378 28.3759 64.1315C28.0541 63.9252 27.6914 63.7911 27.3128 63.7383C26.9341 63.6855 26.5486 63.7153 26.1826 63.8257C25.8166 63.9361 25.4788 64.1245 25.1925 64.3779C25.1925 64.3779 25.1968 64.5694 25.2835 64.55C25.854 64.3384 26.4763 64.31 27.0638 64.4686C27.6512 64.6272 28.1746 64.965 28.5611 65.435C29.1983 66.2305 29.7544 67.0877 30.2212 67.9938C30.3845 68.2863 30.9204 68.1001 30.7911 67.772C30.6625 63.5762 27.1524 57.7486 22.6172 57.5015Z" fill="#263238"/>
<path d="M30.1701 25.9384C32.6741 24.9416 34.7615 10.7658 25.3296 4.23425C15.8978 -2.29727 4.17646 5.66516 9.41543 17.1337C12.7307 24.3768 24.8686 28.043 30.1701 25.9384Z" fill="#5D1106"/>
<path d="M12.3232 3.70624C9.63078 6.05995 7.81665 9.25753 7.17739 12.7761C6.84384 14.4138 6.94772 16.1104 7.47861 17.6951C8.00951 19.2798 8.94868 20.6966 10.2015 21.8028C12.8537 24.0619 16.0746 25.5506 19.5139 26.107C21.2683 26.4541 23.0513 26.6359 24.8397 26.65C26.6456 26.7351 28.452 26.4941 30.1724 25.9385C28.558 26.8793 26.757 27.4547 24.8963 27.6244C23.035 27.8634 21.1516 27.8762 19.2873 27.6626C15.4342 27.3361 11.7806 25.8091 8.84105 23.2967C7.34897 21.9486 6.25065 20.221 5.66312 18.2979C5.14868 16.3819 5.13963 14.3652 5.63685 12.4447C6.09983 10.6105 6.93144 8.88987 8.08098 7.38753C9.23053 5.88519 10.6739 4.63265 12.3232 3.70624Z" fill="#5D1106"/>
</g>
</svg>
