<svg width="101" height="100" viewBox="0 0 101 100" fill="none" xmlns="http://www.w3.org/2000/svg">
<mask id="mask0_424_2527" style="mask-type:alpha" maskUnits="userSpaceOnUse" x="0" y="0" width="101" height="100">
<circle cx="50.5" cy="50" r="50" fill="#D9D9D9"/>
</mask>
<g mask="url(#mask0_424_2527)">
<circle cx="50.5" cy="51" r="50" fill="#F35E79"/>
<path d="M96.657 125.024C95.5 132.011 92.9426 143.504 91.2377 152.958C80.6427 161.697 67.2465 166.312 53.5171 165.954C39.7877 165.596 26.6503 160.288 16.5252 151.009V142.926C16.5252 142.926 10.0251 136.837 11.0146 125.587C12.0041 114.338 26.5721 96.3903 30.4234 92.6608C33.4679 91.4582 46.9552 89.114 46.9552 89.114C57.941 89.0631 68.89 90.3876 79.5468 93.0566C83.6569 94.1222 89.0304 95.9641 89.0304 95.9641C90.7506 100.424 98.6359 112.922 96.657 125.024Z" fill="#08915F"/>
<path d="M25.9481 46.9169C19.6764 23.7937 40.988 11.9049 62.2083 15.6953C81.6635 19.0862 96.7505 47.6553 89 65.5C84.5 74.625 74.625 74.875 71.375 75.875L25.9481 46.9169Z" fill="#B3AECB"/>
<path d="M79.5914 50.22C73.6698 47.6321 70.6861 53.8277 70.6861 53.8277C66.8196 56.2329 64.5971 48.4998 63.7599 46.2165C62.2376 42.152 60.1299 38.6744 55.624 37C52.2751 35.7365 50.4365 36.1249 50.4365 36.1249C50.4365 36.1249 44.6628 36.0705 43.5615 36.0938L39.4365 36.0312C39.4365 36.0312 36.374 36.125 33.874 36.125C28.0615 36.4376 27.8954 38.4986 26.7842 42.1824C25.5321 46.8381 25.0184 51.6615 25.2619 56.4765C25.612 73.7084 29.8287 81.3198 34.6542 83.3596C38.5512 84.9314 42.7916 85.4562 46.9541 84.8818L46.878 90.0119C45.0288 92.5333 43.7098 95.4035 43.0008 98.4489C42.2918 101.494 42.2073 104.652 42.7527 107.731C52.3581 106.635 66.4238 101.383 71.0363 92.6758V67.1323C72.1171 69.3852 77.2319 70.466 80.3982 66.4168C84.4778 61.0889 85.2846 52.7012 79.5914 50.22Z" fill="#FFBDA7"/>
<path d="M40.5 71.5L49.5 69.5C49.6491 70.0448 49.5727 71.4399 49.5 72C49 72.5 49.2834 72.5113 49.0001 73C48.7168 73.4887 48.0935 73.8383 47.6436 74.1798C47.1936 74.5213 45.2422 74.9446 44.6953 75.0859C43.1953 75.1797 42.1172 74.3984 41.6172 73.8984C41 73.2266 40.7249 72.6165 40.5 71.5Z" fill="#B16668"/>
<path d="M44.4688 75.1016C45.5 75.1445 45.8931 75.033 46.5 74.9062C47.375 74.6484 47.8159 74.3484 48.375 73.8359C48.8203 73.3984 49.3401 72.7137 49.5 72.0137C48.4249 71.9375 47.3517 72.1797 46.4474 72.7026C45.5431 73.2256 44.8272 74.1965 44.4688 75.1016Z" fill="#F28F8F"/>
<path d="M46.971 84.8518C52.5577 83.9993 62.7416 81.2745 64.4313 76.6772C64.4313 76.6772 64.6902 80.4068 60.3822 83.6949C56.7744 86.4502 46.9102 88.1703 46.9102 88.1703L46.971 84.8518Z" fill="#F0997A"/>
<path d="M29.4653 44.5727L35.2195 42.9135C35.1279 42.5344 34.9605 42.1778 34.7275 41.8651C34.4945 41.5524 34.2006 41.29 33.8636 41.0938C33.5266 40.8975 33.1534 40.7715 32.7664 40.7232C32.3794 40.6749 31.9866 40.7054 31.6117 40.8128C30.8392 41.0434 30.1853 41.5628 29.7856 42.2629C29.3859 42.9631 29.2712 43.7903 29.4653 44.5727Z" fill="#455A64"/>
<path d="M54.9784 46.2774L49.2852 44.4507C49.384 44.0721 49.5594 43.7177 49.8006 43.4095C50.0418 43.1013 50.3437 42.8459 50.6875 42.659C51.0314 42.4721 51.4099 42.3577 51.7997 42.3229C52.1895 42.2881 52.5823 42.3336 52.9538 42.4566C53.7172 42.7119 54.3531 43.251 54.73 43.9622C55.1069 44.6735 55.1958 45.5024 54.9784 46.2774Z" fill="#455A64"/>
<path d="M29.8618 53.4779C29.8293 53.8012 29.862 54.1278 29.9577 54.4383C30.0534 54.7488 30.2103 55.037 30.4191 55.286C30.6279 55.5349 30.8844 55.7396 31.1735 55.8879C31.4626 56.0362 31.7785 56.1252 32.1025 56.1496C32.4265 56.1739 32.7521 56.1332 33.0602 56.0298C33.3682 55.9265 33.6525 55.7625 33.8962 55.5475C34.1399 55.3326 34.3381 55.0711 34.4792 54.7784C34.6203 54.4857 34.7014 54.1677 34.7178 53.8432C34.7492 53.5203 34.7167 53.1943 34.622 52.884C34.5272 52.5737 34.3722 52.2851 34.1657 52.0348C33.9593 51.7844 33.7054 51.5774 33.4188 51.4253C33.1321 51.2733 32.8183 51.1794 32.4953 51.1488C31.8379 51.1113 31.1923 51.335 30.699 51.7712C30.2058 52.2074 29.9048 52.8208 29.8618 53.4779Z" fill="#285713"/>
<path d="M48.2187 54.8022C48.155 55.456 48.3532 56.1085 48.7698 56.6165C49.1865 57.1244 49.7876 57.4464 50.4413 57.5118C51.1001 57.5452 51.7457 57.318 52.2385 56.8794C52.7312 56.4407 53.0316 55.8258 53.0748 55.1675C53.1072 54.8442 53.0745 54.5177 52.9788 54.2072C52.8831 53.8967 52.7262 53.6084 52.5174 53.3594C52.3086 53.1105 52.0521 52.9058 51.763 52.7575C51.4739 52.6092 51.158 52.5203 50.834 52.4959C50.51 52.4715 50.1844 52.5122 49.8763 52.6156C49.5683 52.7189 49.284 52.8829 49.0403 53.0979C48.7966 53.3128 48.5984 53.5743 48.4573 53.867C48.3162 54.1597 48.2351 54.4777 48.2187 54.8022Z" fill="#285713"/>
<path d="M53.8828 53.5844C53.9636 53.458 54.0883 53.3658 54.2329 53.3256L55.0093 53.0516L56.0444 52.6863C56.3333 52.574 56.628 52.4774 56.9273 52.3971L57.4754 52.2753C57.7175 52.2373 57.9639 52.2373 58.206 52.2753C58.4039 52.2753 58.4344 52.5645 58.3887 52.7168C58.3617 52.8208 58.3082 52.9161 58.2336 52.9935C58.1589 53.0708 58.0655 53.1276 57.9625 53.1582L57.5515 53.28H57.2622H57.1405H56.8664L55.9531 53.5692C55.5618 53.7222 55.1525 53.8245 54.7353 53.8737C54.5228 53.8972 54.3079 53.8657 54.1111 53.7824C54.0602 53.7696 54.0131 53.745 53.9734 53.7106C53.9337 53.6762 53.9027 53.633 53.8828 53.5844Z" fill="#F0997A"/>
<path d="M54.0344 55.4721C54.2514 55.1953 54.5685 55.0148 54.9173 54.9698C55.4213 54.898 55.9309 54.8725 56.4396 54.8937C57.018 54.8937 57.5813 54.8937 58.1597 54.9698C58.7382 55.0459 58.3881 55.8375 57.9771 55.8831C57.2632 55.9515 56.5445 55.9515 55.8307 55.8831H54.3084C54.1562 55.8831 54.1714 55.8832 54.0648 55.7309C54.0457 55.7161 54.0297 55.6975 54.0177 55.6764C54.0058 55.6553 53.9982 55.632 53.9954 55.6079C53.9926 55.5838 53.9945 55.5594 54.0012 55.5361C54.0079 55.5128 54.0192 55.491 54.0344 55.4721Z" fill="#F0997A"/>
<path d="M54.1416 56.6896C54.2786 56.5525 54.4917 56.6896 54.6744 56.6896L55.0397 56.7809L55.8161 57.0245L56.5316 57.2224L56.836 57.2985C56.966 57.3349 57.0932 57.3807 57.2165 57.4355C57.2795 57.4526 57.3348 57.4905 57.3735 57.543C57.4122 57.5955 57.432 57.6595 57.4297 57.7247V57.8008C57.4293 57.8848 57.4066 57.9672 57.3638 58.0394C57.3209 58.1117 57.2596 58.1712 57.1861 58.2118C57.0775 58.2658 56.9572 58.292 56.836 58.288H56.7294H56.3945L56.0139 58.1966L55.2376 57.9531C54.905 57.8577 54.5945 57.6973 54.3243 57.4812C54.2288 57.4054 54.1552 57.3056 54.1111 57.1919C54.0508 57.1202 54.0204 57.0281 54.0261 56.9347C54.0317 56.8412 54.0731 56.7534 54.1416 56.6896Z" fill="#F0997A"/>
<path d="M41.4444 53.1578L39.9222 67.1931L31.6562 64.3007L40.6224 52.8381C40.9166 52.883 41.1972 52.9922 41.4444 53.1578Z" fill="#F0997A"/>
<path d="M73.3516 64.2555C73.3516 64.689 73.4801 65.1129 73.721 65.4734C73.9618 65.8339 74.3042 66.1148 74.7048 66.2807C75.1053 66.4466 75.546 66.49 75.9712 66.4055C76.3965 66.3209 76.7871 66.1121 77.0936 65.8055C77.4002 65.499 77.609 65.1084 77.6935 64.6832C77.7781 64.2579 77.7347 63.8172 77.5688 63.4166C77.4029 63.0161 77.1219 62.6738 76.7615 62.4329C76.401 62.192 75.9772 62.0635 75.5436 62.0635C74.9635 62.0675 74.4082 62.2997 73.998 62.7099C73.5878 63.1201 73.3555 63.6754 73.3516 64.2555Z" fill="#55418F"/>
</g>
</svg>
