<svg width="101" height="100" viewBox="0 0 101 100" fill="none" xmlns="http://www.w3.org/2000/svg">
<mask id="mask0_424_1784" style="mask-type:alpha" maskUnits="userSpaceOnUse" x="0" y="0" width="101" height="100">
<circle cx="50.5" cy="50" r="50" fill="#D9D9D9"/>
</mask>
<g mask="url(#mask0_424_1784)">
<rect x="-18.0293" y="-20.9678" width="137.097" height="166.129" fill="#F35E79"/>
<path d="M87.2323 77.6806C86.6924 95.3706 89.0123 116.681 80.2323 132.841C73.3623 145.481 60.3624 153.351 47.1724 158.031C18.1724 168.321 -21.2576 166.941 -38.8276 137.591C-45.8276 125.861 -45.4077 102.591 -31.7477 95.0806C-24.7477 91.2506 -16.7476 90.8506 -8.98764 89.3806C1.19236 87.4606 8.81236 82.3806 14.1224 73.4806C24.5124 56.0806 23.7224 42.7006 26.9324 23.2706C27.5424 19.6706 28.6624 16.1606 32.4824 13.3706C35.9317 10.4522 40.1117 8.52986 44.5723 7.81058C48.4241 6.47472 52.5461 6.11061 56.5723 6.75058C65.1624 8.31058 72.8724 16.9406 79.1924 22.4206C85.5124 27.9006 88.3124 33.4806 88.1924 42.0306C88.1224 53.9206 87.5923 65.8006 87.2323 77.6806Z" fill="#263238"/>
<path d="M88.7832 86.1606C88.2432 69.9006 87.3732 53.6906 86.6132 37.4506C86.6132 37.3506 86.4632 37.3406 86.4632 37.4506C86.6932 50.8306 86.7532 64.2006 87.1632 77.5806C87.5632 90.6906 88.8732 104.141 88.1632 117.251C86.4832 146.661 55.3732 156.321 30.5032 152.981C29.3732 152.831 29.2632 154.651 30.4132 154.761C52.3332 157.011 79.1132 151.501 87.5632 128.131C92.1532 115.341 89.2332 99.4706 88.7832 86.1606Z" fill="#263238"/>
<path d="M28.5423 21.8406C28.5308 21.7841 28.5002 21.7333 28.4555 21.6968C28.4109 21.6603 28.355 21.6404 28.2973 21.6404C28.2397 21.6404 28.1838 21.6603 28.1391 21.6968C28.0945 21.7333 28.0638 21.7841 28.0523 21.8406C26.0523 37.9406 25.3023 56.8406 15.0523 70.2606C9.98317 76.8235 3.0507 81.7031 -4.83769 84.2606C-11.0877 86.2606 -17.5377 85.9906 -23.9777 86.7606C-49.1377 89.7606 -51.9777 123.211 -34.8977 137.641C-34.5477 137.941 -34.0077 137.341 -34.3577 137.011C-46.2677 125.941 -49.0577 107.251 -37.6877 94.5506C-28.5677 84.3606 -12.8877 89.0106 -1.12768 84.0306C23.2423 73.7106 27.2523 45.3306 28.5423 21.8406Z" fill="#263238"/>
<path d="M31.1321 90.4705C5.00207 116.96 -27.8679 172.69 -21.7479 183.98C-14.9179 196.57 21.4721 159.43 21.3321 157.26C21.2221 155.62 34.0321 121.77 43.7421 97.1505C53.4521 72.5305 37.6021 83.8805 31.1321 90.4705Z" fill="#F7A9A0"/>
<path d="M21.5721 157.261C22.6921 153.641 40.1121 109.011 45.0921 94.8905C50.0721 80.7705 45.4521 76.4105 31.2321 89.3405C17.0121 102.271 -14.1679 145.451 -21.2779 168.34C-28.1379 190.421 -16.7679 190.42 -1.76788 180.24C10.5121 171.95 21.5721 157.261 21.5721 157.261Z" fill="#FFC727"/>
<path d="M46.9623 87.2707C46.9623 87.5307 46.9123 87.7907 46.8723 88.0707C46.7882 88.1915 46.676 88.2901 46.5453 88.358C46.4147 88.4259 46.2695 88.4612 46.1223 88.4606C45.9594 88.4603 45.7997 88.4152 45.6606 88.3303C45.5215 88.2454 45.4085 88.124 45.3337 87.9792C45.2589 87.8345 45.2253 87.672 45.2365 87.5094C45.2477 87.3469 45.3033 87.1905 45.3973 87.0574C45.4912 86.9243 45.6199 86.8195 45.7693 86.7545C45.9187 86.6896 46.0831 86.6668 46.2445 86.6888C46.406 86.7108 46.5583 86.7767 46.6848 86.8793C46.8114 86.9819 46.9074 87.1173 46.9623 87.2707ZM17.3123 105.951C17.1335 105.949 16.9581 106 16.8086 106.098C16.659 106.196 16.5421 106.337 16.4728 106.502C16.4034 106.666 16.3847 106.848 16.4192 107.024C16.4536 107.199 16.5395 107.361 16.666 107.487C16.7924 107.613 16.9537 107.699 17.1292 107.734C17.3047 107.768 17.4865 107.75 17.6513 107.68C17.8162 107.611 17.9567 107.494 18.0548 107.344C18.1529 107.195 18.2043 107.019 18.2023 106.841C18.2023 106.605 18.1085 106.378 17.9416 106.211C17.7747 106.044 17.5483 105.951 17.3123 105.951ZM31.7123 105.951C31.5339 105.951 31.3595 106.004 31.2113 106.103C31.063 106.202 30.9477 106.344 30.8799 106.509C30.8121 106.674 30.7948 106.855 30.8304 107.03C30.8659 107.205 30.9526 107.365 31.0795 107.491C31.2064 107.616 31.3677 107.701 31.5429 107.735C31.7182 107.768 31.8994 107.749 32.0637 107.679C32.228 107.61 32.3678 107.493 32.4655 107.343C32.5632 107.194 32.6143 107.019 32.6123 106.841C32.6123 106.723 32.589 106.606 32.5436 106.498C32.4983 106.389 32.4318 106.291 32.3481 106.208C32.2644 106.125 32.1651 106.06 32.056 106.016C31.9468 105.971 31.83 105.949 31.7123 105.951ZM24.5123 96.7207C24.3339 96.7207 24.1595 96.7737 24.0113 96.8731C23.863 96.9724 23.7477 97.1135 23.6799 97.2786C23.6121 97.4436 23.5948 97.6251 23.6304 97.7999C23.6659 97.9748 23.7526 98.1351 23.8795 98.2606C24.0064 98.3861 24.1677 98.471 24.3429 98.5046C24.5182 98.5382 24.6994 98.5189 24.8637 98.4492C25.028 98.3796 25.1678 98.2627 25.2655 98.1134C25.3632 97.964 25.4143 97.7891 25.4123 97.6107C25.4123 97.493 25.3889 97.3764 25.3436 97.2677C25.2982 97.1591 25.2318 97.0605 25.1481 96.9778C25.0644 96.895 24.9651 96.8296 24.856 96.7855C24.7468 96.7414 24.63 96.7193 24.5123 96.7207ZM38.9223 96.7207C38.7435 96.7187 38.5681 96.77 38.4186 96.8682C38.269 96.9663 38.1521 97.1067 38.0828 97.2716C38.0134 97.4364 37.9947 97.6182 38.0292 97.7937C38.0636 97.9693 38.1495 98.1305 38.276 98.257C38.4024 98.3835 38.5637 98.4694 38.7392 98.5038C38.9147 98.5382 39.0965 98.5195 39.2613 98.4502C39.4262 98.3808 39.5667 98.2639 39.6648 98.1144C39.7629 97.9649 39.8143 97.7895 39.8123 97.6107C39.8123 97.3746 39.7185 97.1482 39.5516 96.9813C39.3847 96.8144 39.1583 96.7207 38.9223 96.7207ZM2.9223 125.221C2.74346 125.219 2.56808 125.27 2.41856 125.368C2.26903 125.466 2.15213 125.607 2.08277 125.772C2.01342 125.936 1.99475 126.118 2.02915 126.294C2.06356 126.469 2.14948 126.631 2.27595 126.757C2.40242 126.883 2.5637 126.969 2.73921 127.004C2.91471 127.038 3.09649 127.02 3.26135 126.95C3.4262 126.881 3.56666 126.764 3.66479 126.614C3.76292 126.465 3.81427 126.29 3.8123 126.111C3.8123 125.993 3.78895 125.876 3.7436 125.768C3.69825 125.659 3.6318 125.561 3.54809 125.478C3.46438 125.395 3.36508 125.33 3.25595 125.286C3.14681 125.241 3.03 125.219 2.91229 125.221H2.9223ZM17.3223 125.221C17.1435 125.219 16.9681 125.27 16.8186 125.368C16.669 125.466 16.5521 125.607 16.4828 125.772C16.4134 125.936 16.3948 126.118 16.4292 126.294C16.4636 126.469 16.5495 126.631 16.6759 126.757C16.8024 126.883 16.9637 126.969 17.1392 127.004C17.3147 127.038 17.4965 127.02 17.6614 126.95C17.8262 126.881 17.9667 126.764 18.0648 126.614C18.1629 126.465 18.2143 126.29 18.2123 126.111C18.2123 125.993 18.1889 125.876 18.1436 125.768C18.0982 125.659 18.0318 125.561 17.9481 125.478C17.8644 125.395 17.7651 125.33 17.656 125.286C17.5468 125.241 17.43 125.219 17.3123 125.221H17.3223ZM31.7223 125.221C31.5439 125.221 31.3695 125.274 31.2212 125.373C31.073 125.472 30.9577 125.614 30.8899 125.779C30.8221 125.944 30.8048 126.125 30.8404 126.3C30.8759 126.475 30.9627 126.635 31.0895 126.761C31.2164 126.886 31.3777 126.971 31.5529 127.005C31.7281 127.038 31.9094 127.019 32.0737 126.949C32.238 126.88 32.3778 126.763 32.4755 126.613C32.5732 126.464 32.6243 126.289 32.6223 126.111C32.6223 125.992 32.5987 125.875 32.5527 125.765C32.5067 125.656 32.4394 125.557 32.3546 125.474C32.2698 125.391 32.1693 125.326 32.059 125.283C31.9487 125.239 31.8308 125.218 31.7123 125.221H31.7223ZM10.1223 115.991C9.94345 115.989 9.76808 116.04 9.61856 116.138C9.46903 116.236 9.35213 116.377 9.28277 116.542C9.21342 116.706 9.19474 116.888 9.22915 117.064C9.26356 117.239 9.34948 117.401 9.47595 117.527C9.60241 117.653 9.76369 117.739 9.9392 117.774C10.1147 117.808 10.2965 117.79 10.4613 117.72C10.6262 117.651 10.7667 117.534 10.8648 117.384C10.9629 117.235 11.0143 117.06 11.0123 116.881C11.0123 116.763 10.9889 116.646 10.9436 116.538C10.8982 116.429 10.8318 116.331 10.7481 116.248C10.6644 116.165 10.5651 116.1 10.456 116.056C10.3468 116.011 10.23 115.989 10.1123 115.991H10.1223ZM24.5223 115.991C24.3439 115.991 24.1695 116.044 24.0213 116.143C23.873 116.242 23.7577 116.384 23.6899 116.549C23.6221 116.714 23.6048 116.895 23.6404 117.07C23.6759 117.245 23.7627 117.405 23.8895 117.531C24.0164 117.656 24.1777 117.741 24.3529 117.775C24.5282 117.808 24.7094 117.789 24.8737 117.719C25.038 117.65 25.1778 117.533 25.2755 117.383C25.3732 117.234 25.4243 117.059 25.4223 116.881C25.4223 116.762 25.3987 116.645 25.3527 116.535C25.3067 116.426 25.2394 116.327 25.1546 116.244C25.0698 116.161 24.9693 116.096 24.859 116.053C24.7487 116.009 24.6308 115.988 24.5123 115.991H24.5223ZM2.91229 144.471C2.73345 144.469 2.55807 144.52 2.40855 144.618C2.25902 144.716 2.14212 144.857 2.07276 145.022C2.00341 145.186 1.98475 145.368 2.01916 145.544C2.05357 145.719 2.13949 145.881 2.26595 146.007C2.39242 146.133 2.55369 146.219 2.7292 146.254C2.90471 146.288 3.0865 146.27 3.25135 146.2C3.41621 146.131 3.55665 146.014 3.65478 145.864C3.75291 145.715 3.80426 145.54 3.80229 145.361C3.80229 145.125 3.70853 144.898 3.54162 144.731C3.37471 144.564 3.14833 144.471 2.91229 144.471ZM17.3123 144.471C17.1335 144.469 16.9581 144.52 16.8086 144.618C16.659 144.716 16.5421 144.857 16.4728 145.022C16.4034 145.186 16.3847 145.368 16.4192 145.544C16.4536 145.719 16.5395 145.881 16.666 146.007C16.7924 146.133 16.9537 146.219 17.1292 146.254C17.3047 146.288 17.4865 146.27 17.6513 146.2C17.8162 146.131 17.9567 146.014 18.0548 145.864C18.1529 145.715 18.2043 145.54 18.2023 145.361C18.2023 145.125 18.1085 144.898 17.9416 144.731C17.7747 144.564 17.5483 144.471 17.3123 144.471ZM-4.28771 135.261C-4.46614 135.261 -4.64053 135.314 -4.78875 135.413C-4.93696 135.512 -5.05231 135.654 -5.12012 135.819C-5.18794 135.984 -5.20517 136.165 -5.16962 136.34C-5.13408 136.515 -5.04736 136.675 -4.92049 136.801C-4.79362 136.926 -4.63232 137.011 -4.45708 137.045C-4.28185 137.078 -4.10058 137.059 -3.93631 136.989C-3.77205 136.92 -3.63219 136.803 -3.53451 136.653C-3.43682 136.504 -3.38573 136.329 -3.38772 136.151C-3.38771 136.033 -3.41105 135.916 -3.4564 135.808C-3.50175 135.699 -3.5682 135.601 -3.65191 135.518C-3.73561 135.435 -3.83491 135.37 -3.94405 135.326C-4.05319 135.281 -4.16999 135.259 -4.28771 135.261ZM10.1223 135.261C9.94345 135.259 9.76808 135.31 9.61856 135.408C9.46903 135.506 9.35213 135.647 9.28277 135.812C9.21342 135.976 9.19474 136.158 9.22915 136.334C9.26356 136.509 9.34948 136.671 9.47595 136.797C9.60241 136.923 9.76369 137.009 9.9392 137.044C10.1147 137.078 10.2965 137.06 10.4613 136.99C10.6262 136.921 10.7667 136.804 10.8648 136.654C10.9629 136.505 11.0143 136.329 11.0123 136.151C11.0123 136.033 10.9889 135.916 10.9436 135.808C10.8982 135.699 10.8318 135.601 10.7481 135.518C10.6644 135.435 10.5651 135.37 10.456 135.326C10.3468 135.281 10.23 135.259 10.1123 135.261H10.1223ZM24.5223 135.261C24.3439 135.261 24.1695 135.314 24.0213 135.413C23.873 135.512 23.7577 135.654 23.6899 135.819C23.6221 135.984 23.6048 136.165 23.6404 136.34C23.6759 136.515 23.7627 136.675 23.8895 136.801C24.0164 136.926 24.1777 137.011 24.3529 137.045C24.5282 137.078 24.7094 137.059 24.8737 136.989C25.038 136.92 25.1778 136.803 25.2755 136.653C25.3732 136.504 25.4243 136.329 25.4223 136.151C25.4223 136.032 25.3987 135.915 25.3527 135.805C25.3067 135.696 25.2394 135.597 25.1546 135.514C25.0698 135.431 24.9693 135.366 24.859 135.323C24.7487 135.279 24.6308 135.258 24.5123 135.261H24.5223ZM-11.4777 163.761C-11.6533 163.763 -11.8244 163.816 -11.9694 163.915C-12.1144 164.014 -12.227 164.154 -12.2928 164.317C-12.3586 164.48 -12.3748 164.658 -12.3394 164.83C-12.3039 165.002 -12.2184 165.16 -12.0935 165.283C-11.9687 165.407 -11.8101 165.491 -11.6377 165.524C-11.4653 165.558 -11.2869 165.54 -11.1249 165.472C-10.9628 165.404 -10.8244 165.29 -10.727 165.144C-10.6297 164.998 -10.5777 164.826 -10.5777 164.651C-10.5776 164.531 -10.6016 164.413 -10.6482 164.303C-10.6948 164.193 -10.763 164.094 -10.8489 164.01C-10.9347 163.927 -11.0364 163.863 -11.1479 163.82C-11.2594 163.777 -11.3783 163.757 -11.4977 163.761H-11.4777ZM2.93229 163.761C2.75627 163.761 2.58419 163.813 2.43783 163.911C2.29147 164.008 2.1774 164.147 2.11004 164.31C2.04268 164.473 2.02506 164.652 2.0594 164.824C2.09374 164.997 2.17849 165.156 2.30296 165.28C2.42743 165.404 2.58602 165.489 2.75866 165.524C2.9313 165.558 3.11026 165.54 3.27288 165.473C3.43551 165.406 3.5745 165.291 3.6723 165.145C3.77009 164.999 3.82229 164.827 3.82229 164.651C3.82232 164.532 3.79865 164.415 3.75268 164.305C3.70671 164.196 3.63936 164.097 3.55459 164.014C3.46982 163.931 3.36933 163.866 3.25903 163.823C3.14873 163.779 3.03084 163.758 2.91229 163.761H2.93229ZM-4.28771 154.531C-4.46614 154.531 -4.64053 154.584 -4.78875 154.683C-4.93696 154.782 -5.05231 154.924 -5.12012 155.089C-5.18794 155.254 -5.20517 155.435 -5.16962 155.61C-5.13408 155.785 -5.04736 155.945 -4.92049 156.071C-4.79362 156.196 -4.63232 156.281 -4.45708 156.315C-4.28185 156.348 -4.10058 156.329 -3.93631 156.259C-3.77205 156.19 -3.63219 156.073 -3.53451 155.923C-3.43682 155.774 -3.38573 155.599 -3.38772 155.421C-3.38771 155.303 -3.41105 155.186 -3.4564 155.078C-3.50175 154.969 -3.5682 154.871 -3.65191 154.788C-3.73561 154.705 -3.83491 154.64 -3.94405 154.596C-4.05319 154.551 -4.16999 154.529 -4.28771 154.531ZM10.1223 154.531C9.94345 154.529 9.76808 154.58 9.61856 154.678C9.46903 154.776 9.35213 154.917 9.28277 155.082C9.21342 155.246 9.19474 155.428 9.22915 155.604C9.26356 155.779 9.34948 155.941 9.47595 156.067C9.60241 156.193 9.76369 156.279 9.9392 156.314C10.1147 156.348 10.2965 156.33 10.4613 156.26C10.6262 156.191 10.7667 156.074 10.8648 155.924C10.9629 155.775 11.0143 155.6 11.0123 155.421C11.0123 155.303 10.9889 155.186 10.9436 155.078C10.8982 154.969 10.8318 154.871 10.7481 154.788C10.6644 154.705 10.5651 154.64 10.456 154.596C10.3468 154.551 10.23 154.529 10.1123 154.531H10.1223ZM-11.4877 183.031C-11.6633 183.033 -11.8344 183.087 -11.9794 183.186C-12.1244 183.284 -12.237 183.424 -12.3028 183.587C-12.3686 183.75 -12.3848 183.928 -12.3494 184.1C-12.3139 184.272 -12.2284 184.43 -12.1035 184.553C-11.9786 184.677 -11.8201 184.761 -11.6477 184.794C-11.4753 184.828 -11.2969 184.81 -11.1348 184.742C-10.9728 184.674 -10.8344 184.56 -10.737 184.414C-10.6397 184.268 -10.5877 184.096 -10.5877 183.921C-10.5877 183.802 -10.6114 183.685 -10.6573 183.575C-10.7033 183.466 -10.7706 183.367 -10.8554 183.284C-10.9402 183.201 -11.0407 183.136 -11.151 183.093C-11.2613 183.049 -11.3792 183.028 -11.4977 183.031H-11.4877ZM-18.6877 173.801C-18.8665 173.799 -19.0419 173.85 -19.1914 173.948C-19.341 174.046 -19.4579 174.187 -19.5272 174.352C-19.5966 174.516 -19.6153 174.698 -19.5808 174.874C-19.5464 175.049 -19.4605 175.211 -19.3341 175.337C-19.2076 175.463 -19.0463 175.549 -18.8708 175.584C-18.6953 175.618 -18.5135 175.6 -18.3487 175.53C-18.1838 175.461 -18.0433 175.344 -17.9452 175.194C-17.8471 175.045 -17.7957 174.869 -17.7977 174.691C-17.7977 174.573 -17.821 174.456 -17.8664 174.348C-17.9117 174.239 -17.9782 174.141 -18.0619 174.058C-18.1456 173.975 -18.2449 173.91 -18.3541 173.866C-18.4632 173.821 -18.58 173.799 -18.6977 173.801H-18.6877ZM-4.28771 173.801C-4.46614 173.801 -4.64053 173.854 -4.78875 173.953C-4.93696 174.052 -5.05231 174.194 -5.12012 174.359C-5.18794 174.524 -5.20517 174.705 -5.16962 174.88C-5.13408 175.055 -5.04736 175.215 -4.92049 175.341C-4.79362 175.466 -4.63232 175.551 -4.45708 175.585C-4.28185 175.618 -4.10058 175.599 -3.93631 175.529C-3.77205 175.46 -3.63219 175.343 -3.53451 175.193C-3.43682 175.044 -3.38573 174.869 -3.38772 174.691C-3.38771 174.573 -3.41105 174.456 -3.4564 174.348C-3.50175 174.239 -3.5682 174.141 -3.65191 174.058C-3.73561 173.975 -3.83491 173.91 -3.94405 173.866C-4.05319 173.821 -4.16999 173.799 -4.28771 173.801Z" fill="white"/>
<path d="M11.2422 197.811L13.8522 182.161L17.6022 154.391C17.6022 154.391 8.77218 138.971 13.8922 127.911C16.4822 122.301 39.1722 87.4706 48.7122 80.4706C57.7122 73.9606 70.7122 80.9306 75.5322 86.0206C94.1922 105.661 102.992 144.661 109.692 197.781L11.2422 197.811Z" fill="#F7A9A0"/>
<path d="M14.5118 177.251L17.6018 154.401C17.6018 154.401 8.77174 138.981 13.8917 127.911C16.4817 122.301 39.1718 87.4706 48.7118 80.4706C57.7118 73.9706 70.7118 80.9306 75.5318 86.0306C91.6918 103.031 100.462 134.571 106.872 177.221L14.5118 177.251Z" fill="#FFC727"/>
<path d="M81.9117 88.4706C115.352 117.641 141.652 153.681 139.912 162.691C136.762 179.471 114.712 180.521 111.332 176.891C97.7917 162.221 83.5017 133.801 68.0217 102.091C54.1917 73.7506 70.9017 78.8806 81.9117 88.4706Z" fill="#FFC727"/>
<path d="M75.8227 87.5707C75.8246 87.7496 75.7733 87.9249 75.6752 88.0744C75.577 88.224 75.4366 88.3409 75.2717 88.4102C75.1069 88.4796 74.9251 88.4983 74.7496 88.4638C74.5741 88.4294 74.4128 88.3435 74.2863 88.2171C74.1599 88.0906 74.074 87.9293 74.0395 87.7538C74.0051 87.5783 74.0238 87.3965 74.0932 87.2317C74.1625 87.0668 74.2794 86.9263 74.4289 86.8282C74.5785 86.7301 74.7538 86.6787 74.9327 86.6807C75.1687 86.6807 75.3951 86.7745 75.562 86.9414C75.7289 87.1083 75.8227 87.3347 75.8227 87.5707ZM74.9327 105.951C74.7538 105.949 74.5785 106 74.4289 106.098C74.2794 106.196 74.1625 106.337 74.0932 106.502C74.0238 106.667 74.0051 106.848 74.0395 107.024C74.074 107.199 74.1599 107.361 74.2863 107.487C74.4128 107.614 74.5741 107.699 74.7496 107.734C74.9251 107.768 75.1069 107.75 75.2717 107.68C75.4366 107.611 75.577 107.494 75.6752 107.344C75.7733 107.195 75.8246 107.02 75.8227 106.841C75.8227 106.605 75.7289 106.378 75.562 106.211C75.3951 106.044 75.1687 105.951 74.9327 105.951ZM89.3327 105.951C89.1542 105.951 88.9798 106.004 88.8316 106.103C88.6834 106.202 88.5681 106.344 88.5003 106.509C88.4325 106.674 88.4152 106.855 88.4508 107.03C88.4863 107.205 88.573 107.365 88.6999 107.491C88.8268 107.616 88.9881 107.701 89.1633 107.735C89.3385 107.768 89.5198 107.749 89.6841 107.679C89.8483 107.61 89.9882 107.493 90.0859 107.343C90.1836 107.194 90.2346 107.019 90.2327 106.841C90.2327 106.723 90.2093 106.606 90.164 106.498C90.1186 106.389 90.0522 106.291 89.9685 106.208C89.8848 106.125 89.7855 106.06 89.6763 106.016C89.5672 105.971 89.4504 105.949 89.3327 105.951ZM67.7127 96.7207C67.5338 96.7187 67.3585 96.7701 67.2089 96.8682C67.0594 96.9663 66.9425 97.1068 66.8732 97.2716C66.8038 97.4365 66.7851 97.6183 66.8195 97.7938C66.854 97.9693 66.9399 98.1306 67.0663 98.2571C67.1928 98.3835 67.3541 98.4694 67.5296 98.5039C67.7051 98.5383 67.8869 98.5196 68.0517 98.4502C68.2166 98.3809 68.357 98.264 68.4552 98.1145C68.5533 97.9649 68.6047 97.7896 68.6027 97.6107C68.6027 97.3747 68.5089 97.1483 68.342 96.9814C68.1751 96.8145 67.9487 96.7207 67.7127 96.7207ZM82.1127 96.7207C81.9338 96.7187 81.7585 96.7701 81.6089 96.8682C81.4594 96.9663 81.3425 97.1068 81.2732 97.2716C81.2038 97.4365 81.1851 97.6183 81.2195 97.7938C81.254 97.9693 81.3399 98.1306 81.4663 98.2571C81.5928 98.3835 81.7541 98.4694 81.9296 98.5039C82.1051 98.5383 82.2869 98.5196 82.4517 98.4502C82.6166 98.3809 82.757 98.264 82.8552 98.1145C82.9533 97.9649 83.0047 97.7896 83.0027 97.6107C83.0027 97.3781 82.9117 97.1547 82.7491 96.9884C82.5865 96.822 82.3652 96.7259 82.1327 96.7207H82.1127ZM89.3127 125.221C89.1343 125.221 88.9599 125.274 88.8116 125.373C88.6634 125.472 88.5481 125.614 88.4803 125.779C88.4125 125.944 88.3952 126.125 88.4308 126.3C88.4663 126.475 88.553 126.635 88.6799 126.761C88.8068 126.886 88.9681 126.971 89.1433 127.005C89.3185 127.038 89.4998 127.019 89.6641 126.949C89.8283 126.88 89.9682 126.763 90.0659 126.613C90.1636 126.464 90.2147 126.289 90.2127 126.111C90.2127 125.876 90.1203 125.652 89.9555 125.485C89.7908 125.318 89.567 125.223 89.3327 125.221H89.3127ZM103.723 125.221C103.544 125.219 103.368 125.27 103.219 125.368C103.069 125.466 102.953 125.607 102.883 125.772C102.814 125.937 102.795 126.118 102.83 126.294C102.864 126.469 102.95 126.631 103.076 126.757C103.203 126.884 103.364 126.969 103.54 127.004C103.715 127.038 103.897 127.02 104.062 126.95C104.227 126.881 104.367 126.764 104.465 126.614C104.563 126.465 104.615 126.29 104.613 126.111C104.613 125.993 104.589 125.876 104.544 125.768C104.499 125.659 104.432 125.561 104.348 125.478C104.265 125.395 104.165 125.33 104.056 125.286C103.947 125.241 103.83 125.219 103.713 125.221H103.723ZM117.813 125.271C117.642 125.336 117.496 125.451 117.392 125.601C117.288 125.751 117.233 125.928 117.233 126.111C117.233 126.347 117.326 126.573 117.493 126.74C117.66 126.907 117.887 127.001 118.123 127.001C118.277 127 118.429 126.96 118.563 126.885C118.698 126.81 118.811 126.702 118.893 126.571L117.813 125.271ZM82.1127 115.991C81.9338 115.989 81.7585 116.04 81.6089 116.138C81.4594 116.236 81.3425 116.377 81.2732 116.542C81.2038 116.707 81.1851 116.888 81.2195 117.064C81.254 117.239 81.3399 117.401 81.4663 117.527C81.5928 117.654 81.7541 117.739 81.9296 117.774C82.1051 117.808 82.2869 117.79 82.4517 117.72C82.6166 117.651 82.757 117.534 82.8552 117.384C82.9533 117.235 83.0047 117.06 83.0027 116.881C83.0027 116.648 82.9117 116.425 82.7491 116.258C82.5865 116.092 82.3652 115.996 82.1327 115.991H82.1127ZM96.5127 115.991C96.3342 115.991 96.1598 116.044 96.0116 116.143C95.8634 116.242 95.7481 116.384 95.6803 116.549C95.6124 116.714 95.5952 116.895 95.6308 117.07C95.6663 117.245 95.753 117.405 95.8799 117.531C96.0068 117.656 96.1681 117.741 96.3433 117.775C96.5185 117.808 96.6998 117.789 96.8641 117.719C97.0283 117.65 97.1682 117.533 97.2659 117.383C97.3636 117.234 97.4147 117.059 97.4127 116.881C97.4127 116.646 97.3203 116.422 97.1555 116.255C96.9908 116.088 96.767 115.993 96.5327 115.991H96.5127ZM110.163 116.411C110.078 116.553 110.033 116.715 110.033 116.881C110.031 116.998 110.053 117.115 110.098 117.224C110.142 117.334 110.207 117.433 110.29 117.517C110.373 117.6 110.471 117.667 110.58 117.712C110.688 117.757 110.805 117.781 110.923 117.781C111.05 117.783 111.177 117.755 111.293 117.701C110.943 117.261 110.563 116.841 110.183 116.411H110.163ZM89.7127 144.551C89.9027 144.881 90.0727 145.211 90.2527 145.551C90.2573 145.501 90.2573 145.451 90.2527 145.401C90.2605 145.221 90.2128 145.043 90.1163 144.891C90.0197 144.739 89.8788 144.62 89.7127 144.551ZM103.713 144.471C103.534 144.469 103.358 144.52 103.209 144.618C103.059 144.716 102.943 144.857 102.873 145.022C102.804 145.187 102.785 145.368 102.82 145.544C102.854 145.719 102.94 145.881 103.066 146.007C103.193 146.134 103.354 146.219 103.53 146.254C103.705 146.288 103.887 146.27 104.052 146.2C104.217 146.131 104.357 146.014 104.455 145.864C104.553 145.715 104.605 145.54 104.603 145.361C104.603 145.125 104.509 144.898 104.342 144.731C104.175 144.564 103.949 144.471 103.713 144.471ZM118.113 144.471C117.934 144.469 117.758 144.52 117.609 144.618C117.459 144.716 117.343 144.857 117.273 145.022C117.204 145.187 117.185 145.368 117.22 145.544C117.254 145.719 117.34 145.881 117.466 146.007C117.593 146.134 117.754 146.219 117.93 146.254C118.105 146.288 118.287 146.27 118.452 146.2C118.617 146.131 118.757 146.014 118.855 145.864C118.953 145.715 119.005 145.54 119.003 145.361C119.003 145.13 118.913 144.908 118.753 144.742C118.592 144.576 118.373 144.478 118.143 144.471H118.113ZM132.173 144.531C131.987 144.615 131.835 144.759 131.742 144.941C131.649 145.123 131.621 145.33 131.661 145.53C131.702 145.73 131.809 145.911 131.966 146.041C132.122 146.172 132.319 146.246 132.523 146.251C132.747 146.251 132.964 146.169 133.133 146.021C132.853 145.551 132.533 145.051 132.203 144.551L132.173 144.531ZM96.5027 135.241C96.3243 135.241 96.1499 135.294 96.0016 135.393C95.8534 135.492 95.7381 135.634 95.6703 135.799C95.6024 135.964 95.5852 136.145 95.6208 136.32C95.6563 136.495 95.743 136.655 95.8699 136.781C95.9968 136.906 96.1581 136.991 96.3333 137.025C96.5085 137.058 96.6898 137.039 96.8541 136.969C97.0183 136.9 97.1582 136.783 97.2559 136.633C97.3536 136.484 97.4047 136.309 97.4027 136.131C97.3976 135.902 97.3043 135.683 97.1422 135.521C96.9801 135.359 96.7618 135.266 96.5327 135.261L96.5027 135.241ZM110.913 135.241C110.734 135.239 110.558 135.29 110.409 135.388C110.259 135.486 110.143 135.627 110.073 135.792C110.004 135.957 109.985 136.138 110.02 136.314C110.054 136.489 110.14 136.651 110.266 136.777C110.393 136.904 110.554 136.989 110.73 137.024C110.905 137.058 111.087 137.04 111.252 136.97C111.417 136.901 111.557 136.784 111.655 136.634C111.753 136.485 111.805 136.31 111.803 136.131C111.798 135.903 111.706 135.686 111.546 135.525C111.386 135.363 111.17 135.268 110.943 135.261L110.913 135.241ZM126.203 135.951L125.783 135.401C125.646 135.321 125.491 135.279 125.333 135.281C125.112 135.304 124.907 135.408 124.758 135.574C124.61 135.739 124.527 135.953 124.527 136.176C124.527 136.398 124.61 136.612 124.758 136.778C124.907 136.943 125.112 137.047 125.333 137.071C125.569 137.068 125.795 136.974 125.963 136.808C126.131 136.642 126.227 136.417 126.233 136.181C126.239 136.111 126.239 136.041 126.233 135.971L126.203 135.951ZM103.713 163.761C103.537 163.761 103.365 163.813 103.218 163.911C103.072 164.009 102.958 164.147 102.89 164.31C102.823 164.473 102.805 164.652 102.84 164.824C102.874 164.997 102.959 165.156 103.083 165.28C103.208 165.405 103.366 165.489 103.539 165.524C103.712 165.558 103.891 165.54 104.053 165.473C104.216 165.406 104.355 165.292 104.453 165.145C104.55 164.999 104.603 164.827 104.603 164.651C104.603 164.415 104.509 164.188 104.342 164.021C104.175 163.854 103.949 163.761 103.713 163.761ZM118.113 163.761C117.937 163.761 117.765 163.813 117.618 163.911C117.472 164.009 117.358 164.147 117.29 164.31C117.223 164.473 117.205 164.652 117.24 164.824C117.274 164.997 117.359 165.156 117.483 165.28C117.608 165.405 117.766 165.489 117.939 165.524C118.112 165.558 118.291 165.54 118.453 165.473C118.616 165.406 118.755 165.292 118.853 165.145C118.95 164.999 119.003 164.827 119.003 164.651C119.003 164.42 118.913 164.198 118.753 164.032C118.592 163.866 118.373 163.769 118.143 163.761H118.113ZM132.523 163.761C132.347 163.761 132.175 163.813 132.028 163.911C131.882 164.009 131.768 164.147 131.7 164.31C131.633 164.473 131.615 164.652 131.65 164.824C131.684 164.997 131.769 165.156 131.893 165.28C132.018 165.405 132.176 165.489 132.349 165.524C132.522 165.558 132.701 165.54 132.863 165.473C133.026 165.406 133.165 165.292 133.263 165.145C133.36 164.999 133.413 164.827 133.413 164.651C133.413 164.42 133.323 164.198 133.163 164.032C133.002 163.866 132.783 163.769 132.553 163.761H132.523ZM96.5227 154.531C96.3442 154.531 96.1698 154.584 96.0216 154.683C95.8734 154.782 95.7581 154.924 95.6903 155.089C95.6225 155.254 95.6052 155.435 95.6408 155.61C95.6763 155.785 95.763 155.945 95.8899 156.071C96.0168 156.196 96.1781 156.281 96.3533 156.315C96.5285 156.348 96.7098 156.329 96.8741 156.259C97.0384 156.19 97.1782 156.073 97.2759 155.923C97.3736 155.774 97.4246 155.599 97.4227 155.421C97.4227 155.185 97.3289 154.958 97.162 154.791C96.9951 154.624 96.7687 154.531 96.5327 154.531H96.5227ZM110.933 154.531C110.754 154.529 110.578 154.58 110.429 154.678C110.279 154.776 110.163 154.917 110.093 155.082C110.024 155.246 110.005 155.428 110.04 155.604C110.074 155.779 110.16 155.941 110.286 156.067C110.413 156.194 110.574 156.279 110.75 156.314C110.925 156.348 111.107 156.33 111.272 156.26C111.437 156.191 111.577 156.074 111.675 155.924C111.773 155.775 111.825 155.6 111.823 155.421C111.823 155.186 111.73 154.962 111.566 154.795C111.401 154.628 111.177 154.533 110.943 154.531H110.933ZM125.333 154.531C125.154 154.531 124.98 154.584 124.832 154.683C124.683 154.782 124.568 154.924 124.5 155.089C124.432 155.254 124.415 155.435 124.451 155.61C124.486 155.785 124.573 155.945 124.7 156.071C124.827 156.196 124.988 156.281 125.163 156.315C125.339 156.348 125.52 156.329 125.684 156.259C125.848 156.19 125.988 156.073 126.086 155.923C126.184 155.774 126.235 155.599 126.233 155.421C126.233 155.185 126.139 154.958 125.972 154.791C125.805 154.624 125.579 154.531 125.343 154.531H125.333ZM110.933 173.801C110.754 173.799 110.578 173.85 110.429 173.948C110.279 174.046 110.163 174.187 110.093 174.352C110.024 174.517 110.005 174.698 110.04 174.874C110.074 175.049 110.16 175.211 110.286 175.337C110.413 175.464 110.574 175.549 110.75 175.584C110.925 175.618 111.107 175.6 111.272 175.53C111.437 175.461 111.577 175.344 111.675 175.194C111.773 175.045 111.825 174.87 111.823 174.691C111.823 174.456 111.73 174.232 111.566 174.065C111.401 173.898 111.177 173.803 110.943 173.801H110.933ZM125.333 173.801C125.154 173.801 124.98 173.854 124.832 173.953C124.683 174.052 124.568 174.194 124.5 174.359C124.432 174.524 124.415 174.705 124.451 174.88C124.486 175.055 124.573 175.215 124.7 175.341C124.827 175.466 124.988 175.551 125.163 175.585C125.339 175.618 125.52 175.599 125.684 175.529C125.848 175.46 125.988 175.343 126.086 175.193C126.184 175.044 126.235 174.869 126.233 174.691C126.233 174.455 126.139 174.228 125.972 174.061C125.805 173.894 125.579 173.801 125.343 173.801H125.333Z" fill="white"/>
<path d="M62.7126 80.6706C62.2426 82.3706 53.6226 93.2206 45.7826 92.5606C43.2326 92.3406 43.7826 78.3506 43.7826 78.3506L43.5926 77.3506L40.8926 62.7606L58.2826 52.4706L60.7926 51.1106C60.7926 51.1106 61.2726 55.1106 61.7926 60.2006C61.7926 60.4306 61.8426 60.6606 61.8626 60.9106C61.8826 61.1606 61.9426 61.4706 61.9626 61.7306C62.0626 62.4806 62.1426 63.2506 62.2226 64.0206C62.2826 64.6006 62.3326 65.1706 62.3726 65.7806C62.4126 66.3906 62.4726 67.0006 62.5226 67.6106C62.8809 71.9546 62.9444 76.318 62.7126 80.6706Z" fill="#F7A9A0"/>
<path d="M61.813 60.1706C60.1981 64.1797 57.7302 67.7894 54.5805 70.7492C51.4308 73.7089 47.6747 75.9479 43.573 77.3106L40.873 62.7206L58.2831 52.4706L60.793 51.1106C60.793 51.1106 61.273 55.1306 61.813 60.1706Z" fill="#263238"/>
<path d="M22.5229 39.1106C19.8329 65.0206 35.0529 69.5606 40.6429 70.1106C45.7129 70.6306 63.0529 71.7606 68.4029 46.2606C73.7529 20.7606 62.5529 11.3306 51.0129 9.52059C39.4729 7.71059 25.2129 13.2006 22.5229 39.1106Z" fill="#F7A9A0"/>
<path d="M31.253 33.0905C31.8495 33.0507 32.4436 32.9806 33.033 32.8805C33.6716 32.8936 34.2969 32.6968 34.813 32.3205C34.9551 32.1716 35.0431 31.9794 35.0631 31.7745C35.083 31.5696 35.0337 31.364 34.923 31.1905C34.6505 30.8867 34.3027 30.6602 33.9147 30.5338C33.5266 30.4074 33.1121 30.3856 32.713 30.4705C31.8744 30.5165 31.0831 30.873 30.493 31.4705C30.3777 31.6163 30.3053 31.7912 30.284 31.9758C30.2626 32.1604 30.2931 32.3473 30.372 32.5155C30.4509 32.6838 30.5752 32.8267 30.7308 32.9282C30.8864 33.0298 31.0672 33.086 31.253 33.0905Z" fill="#263238"/>
<path d="M49.8321 32.9505C49.2462 32.8176 48.6685 32.6507 48.1021 32.4505C47.47 32.3584 46.8863 32.0595 46.4421 31.6005C46.3299 31.4312 46.2769 31.2295 46.2914 31.0269C46.3059 30.8243 46.387 30.6322 46.5221 30.4805C46.8378 30.2197 47.2174 30.0479 47.6218 29.9828C48.0261 29.9178 48.4405 29.9619 48.8221 30.1105C49.6333 30.2965 50.3463 30.7777 50.8221 31.4605C50.9145 31.6217 50.9602 31.8053 50.9541 31.9909C50.948 32.1765 50.8903 32.3568 50.7876 32.5115C50.6848 32.6662 50.5409 32.7892 50.3722 32.8667C50.2034 32.9443 50.0164 32.9733 49.8321 32.9505Z" fill="#263238"/>
<path d="M45.2019 40.7305C45.2019 40.6705 45.3319 40.8305 45.3219 40.9005C45.0919 42.6605 45.1319 44.7205 46.6719 45.4605C46.6719 45.4605 46.6719 45.5705 46.6719 45.5605C44.7119 45.0905 44.7119 42.3605 45.2019 40.7305Z" fill="#263238"/>
<path d="M46.9616 39.0406C49.8216 39.1106 49.4816 44.8206 46.8316 44.7706C44.1816 44.7206 44.5616 38.9906 46.9616 39.0406Z" fill="#263238"/>
<path d="M48.0629 39.4105C48.5429 39.7605 49.0029 40.3605 49.5929 40.4605C50.1829 40.5605 50.8529 40.0005 51.3429 39.4605C51.3929 39.4605 51.4329 39.4605 51.4329 39.5305C51.3829 40.6305 50.9029 41.7305 49.7129 41.8205C48.5229 41.9105 47.9229 40.9005 47.7129 39.8205C47.7129 39.5605 47.8729 39.2705 48.0629 39.4105Z" fill="#263238"/>
<path d="M34.4115 39.4705C34.4115 39.4005 34.2615 39.5405 34.2615 39.6105C34.2015 41.3905 33.8315 43.4105 32.1915 43.8905C32.1315 43.8905 32.1315 43.9905 32.1915 43.9905C34.1715 43.8005 34.6315 41.1205 34.4115 39.4705Z" fill="#263238"/>
<path d="M32.9515 37.4706C30.1215 37.0606 29.5115 42.7605 32.1315 43.1405C34.7515 43.5205 35.3315 37.8206 32.9515 37.4706Z" fill="#263238"/>
<path d="M31.7122 37.7206C31.2222 37.9706 30.7122 38.4706 30.1822 38.4506C29.6522 38.4306 29.1822 37.7606 28.8222 37.1306C28.8222 37.0606 28.7422 37.1306 28.7322 37.1806C28.5822 38.2606 28.8222 39.4406 29.8422 39.7606C30.8622 40.0806 31.5822 39.1906 31.9522 38.1406C32.0422 37.9406 31.9222 37.6206 31.7122 37.7206Z" fill="#263238"/>
<path d="M42.4015 54.5307C41.9715 54.9407 41.5415 55.5307 40.8915 55.5307C40.2314 55.5146 39.5829 55.3542 38.9915 55.0607C38.9796 55.0584 38.9673 55.0592 38.9558 55.0631C38.9443 55.067 38.934 55.0738 38.9259 55.0829C38.9178 55.092 38.9122 55.103 38.9097 55.1149C38.9072 55.1268 38.9078 55.1391 38.9115 55.1507C39.1581 55.5058 39.4972 55.7868 39.8921 55.963C40.2869 56.1393 40.7224 56.2042 41.1515 56.1507C41.5157 56.0631 41.8454 55.8688 42.0984 55.5927C42.3514 55.3165 42.5161 54.9711 42.5715 54.6007C42.6015 54.4707 42.4615 54.4707 42.4015 54.5307Z" fill="#263238"/>
<path d="M35.4521 47.6106C35.4521 47.6106 34.9021 50.2306 34.8121 51.4806C34.8121 51.5906 35.1021 51.6706 35.5221 51.7306C35.5221 51.7306 35.5221 51.7306 35.5721 51.7306C36.6283 52.0026 37.7391 51.9775 38.782 51.6581C39.8249 51.3387 40.7593 50.7374 41.4821 49.9206C41.5821 49.8106 41.4321 49.6706 41.3121 49.7406C39.6451 50.7122 37.7099 51.1224 35.7921 50.9106C35.7221 50.5606 36.8821 46.4606 36.6921 46.4306C35.7165 46.445 34.7475 46.5931 33.8121 46.8706C34.8121 41.3906 36.6621 36.1006 37.5621 30.6306C37.5753 30.5895 37.5717 30.5448 37.552 30.5063C37.5323 30.4679 37.4982 30.4389 37.457 30.4256C37.4159 30.4123 37.3713 30.4159 37.3328 30.4356C37.2944 30.4553 37.2653 30.4895 37.252 30.5306C34.902 35.9206 33.6321 42.2106 32.4621 47.8506C32.3021 48.5506 34.9421 47.7906 35.4521 47.6106Z" fill="#263238"/>
<path d="M35.9531 51.2705C36.5699 52.3091 37.4449 53.1703 38.4931 53.7705C39.0734 54.0852 39.7397 54.2044 40.3931 54.1105C41.8231 53.9105 42.0031 52.6505 41.8731 51.5305C41.802 50.9393 41.661 50.3586 41.4531 49.8005C39.8236 50.8649 37.8963 51.38 35.9531 51.2705Z" fill="#263238"/>
<path d="M38.4922 53.7707C39.0725 54.0854 39.7388 54.2046 40.3922 54.1107C41.8222 53.9107 42.0022 52.6507 41.8722 51.5307C41.1396 51.4729 40.4087 51.6621 39.7961 52.0681C39.1835 52.4741 38.7245 53.0735 38.4922 53.7707Z" fill="#FF9CBD"/>
<path d="M67.322 44.7607C61.322 44.3307 62.1721 34.9207 62.1721 34.9207C62.1721 34.9207 55.452 33.7507 55.862 22.7907C55.862 22.7907 52.0621 29.1207 42.7821 29.7007C40.7821 29.8307 47.7821 25.3307 47.7821 25.3307C47.7821 25.3307 38.4021 31.4707 24.1521 27.6007C23.1521 27.3307 27.5921 12.5207 39.3721 8.24068C51.1521 3.96068 61.142 7.77066 67.572 15.5107C67.572 15.5107 75.572 20.0307 75.862 27.9907C76.152 35.9507 69.642 44.9307 67.322 44.7607Z" fill="#263238"/>
<path d="M71.9325 40.7606C73.9196 37.4864 75.0719 33.7742 75.2881 29.9503C75.5044 26.1264 74.7779 22.3079 73.1725 18.8306C67.6925 6.6106 48.0325 1.7606 35.0625 10.4106C35.0625 10.4106 57.3625 6.4106 64.9025 16.4706C72.4425 26.5306 71.9325 40.7606 71.9325 40.7606Z" fill="#FFC727"/>
<path d="M63.9428 47.2707C63.9428 47.2707 69.7628 39.2707 73.4128 41.2707C77.0628 43.2707 72.6028 55.0807 68.2428 56.6107C67.6981 56.8471 67.1112 56.9709 66.5174 56.9745C65.9236 56.978 65.3352 56.8614 64.7877 56.6315C64.2402 56.4017 63.7449 56.0634 63.3316 55.6371C62.9183 55.2107 62.5955 54.7051 62.3828 54.1507L63.9428 47.2707Z" fill="#F7A9A0"/>
<path d="M72.0523 44.6506C72.1223 44.6506 72.1323 44.7406 72.0523 44.7706C68.9923 45.9406 67.3523 48.7706 66.1823 51.6306C67.1023 50.5306 68.3423 49.9306 69.8323 51.0306C69.9123 51.0906 69.8323 51.2106 69.7423 51.1906C69.2107 51.0102 68.6361 50.9999 68.0984 51.1612C67.5608 51.3225 67.0867 51.6474 66.7423 52.0906C66.1743 52.8311 65.685 53.6288 65.2823 54.4706C65.1323 54.7406 64.6423 54.5906 64.7523 54.2806V54.2106C64.7823 50.3406 67.8823 44.9706 72.0523 44.6506Z" fill="#263238"/>
</g>
</svg>
