<svg width="101" height="100" viewBox="0 0 101 100" fill="none" xmlns="http://www.w3.org/2000/svg">
<mask id="mask0_424_2549" style="mask-type:alpha" maskUnits="userSpaceOnUse" x="0" y="0" width="101" height="100">
<circle cx="50.5" cy="50" r="50" fill="#D9D9D9"/>
</mask>
<g mask="url(#mask0_424_2549)">
<rect x="-2.22656" y="-20.9678" width="137.097" height="166.129" fill="#FDBD04"/>
<path d="M22.1855 109.313L62.4779 124.753C62.4779 124.753 74.8587 106.914 80.3348 96.0719C87.5508 81.7132 83.9977 75.6693 65.683 83.0684C53.5587 88.0317 22.1855 109.313 22.1855 109.313Z" fill="#F35E79"/>
<path d="M91.636 84.6802C91.8624 80.3074 91.5176 75.9238 90.6104 71.6401C89.6765 59.5158 91.1049 66.5486 90.9767 51.5489C90.9331 45.2924 89.5583 39.117 86.9437 33.4329C84.329 27.7489 80.5344 22.6865 75.812 18.5824C48.2667 -7.91906 20.703 17.4469 16.6921 38.4172C13.2306 56.8419 15.5024 59.5158 10.9237 75.999C9.53169 78.7181 10.52 84.6802 10.52 84.6802H17.3339C17.4641 76.8601 18.4584 69.0975 20.758 61.622C21.7836 58.655 19.7507 72.2079 22.3697 84.6802H27.4051V71.6401C27.4051 77.3543 29.2366 84.6802 29.2366 84.6802H81.4164C82.2172 76.8909 78.8946 64.273 78.673 63.4314L78.6692 63.4168C82.7534 70.0284 84.3467 79.4788 84.9328 84.6802H91.636Z" fill="#263238"/>
<path d="M151.304 192.48C151.304 192.48 195.406 151.821 165.077 93.0861C165.077 93.0861 145.883 96.1263 140.846 95.1374C125.572 92.1704 114.125 83.7089 96.5246 77.1523C78.9241 70.5956 66.7998 75.7604 59.8035 87.7016C58.0636 90.6686 49.4923 134.221 55.756 149.679C60.6826 161.821 80.6457 165.338 80.6457 165.338C80.6457 165.338 117.733 196.18 151.304 192.48Z" fill="#F35E79"/>
<path d="M82.4412 85.6868C82.313 87.6831 75.2435 101.602 66.4342 102.646C63.5771 102.976 61.0496 87.4084 61.0496 87.4084L60.6101 86.2912L54.3281 70.7969L71.2326 55.5041L73.6868 53.4529C73.6868 53.4529 75.1337 57.8118 76.8736 63.2513C76.8736 63.5077 77.0384 63.7457 77.1117 64.0205C77.1849 64.2952 77.3314 64.6066 77.4047 64.8996C77.6794 65.7054 77.9541 66.5479 78.2106 67.3721C78.467 68.1962 78.5952 68.6175 78.7783 69.2036C78.9614 69.7896 79.1446 70.5222 79.3461 71.1999C80.71 75.9518 81.7442 80.7923 82.4412 85.6868Z" fill="#AD6359"/>
<path d="M76.8736 63.2513C75.9925 68.0402 74.082 72.5806 71.2739 76.5586C68.4659 80.5367 64.8275 83.8573 60.6101 86.2912L54.3281 70.7969L71.2326 55.5041L73.6868 53.4529C73.6868 53.4529 75.1337 57.8118 76.8736 63.2513Z" fill="#263238"/>
<path d="M26.4876 53.5632C33.0443 82.1708 50.9195 81.4748 57.0915 80.0462C62.6958 78.7642 81.5966 73.6544 78.0252 44.5157C74.4539 15.3769 59.0695 9.38803 46.121 11.6591C33.1725 13.9301 19.9309 24.9556 26.4876 53.5632Z" fill="#AD6359"/>
<path d="M30.7725 47.9956C31.4008 47.7069 32.0123 47.3828 32.604 47.0249C33.2817 46.7649 33.8547 46.2885 34.234 45.6696C34.3166 45.4562 34.3253 45.2212 34.259 45.0022C34.1926 44.7831 34.0549 44.5926 33.8677 44.4609C33.4573 44.2479 32.9967 44.1508 32.5353 44.1798C32.0739 44.2089 31.6291 44.363 31.2487 44.6257C30.4165 45.0384 29.7647 45.7423 29.4172 46.6037C29.3622 46.7933 29.3585 46.9941 29.4064 47.1857C29.4543 47.3772 29.5521 47.5525 29.6898 47.694C29.8275 47.8354 30.0003 47.9379 30.1905 47.9909C30.3806 48.0439 30.5815 48.0455 30.7725 47.9956Z" fill="#263238"/>
<path d="M50.4074 42.6844C49.7115 42.7942 49.0705 42.7942 48.3745 42.8492C47.6761 43.024 46.9387 42.9529 46.2866 42.6477C46.098 42.5129 45.9596 42.3191 45.8932 42.0969C45.8269 41.8747 45.8364 41.6368 45.9203 41.4206C46.1463 41.0218 46.4737 40.6898 46.8693 40.4582C47.2649 40.2267 47.7146 40.1037 48.173 40.102C49.112 39.9581 50.0711 40.1669 50.8653 40.6881C51.0401 40.8173 51.1735 40.9948 51.2489 41.1987C51.3244 41.4027 51.3387 41.6242 51.2901 41.8361C51.2414 42.0481 51.132 42.2412 50.9752 42.3919C50.8185 42.5425 50.6211 42.6442 50.4074 42.6844Z" fill="#263238"/>
<path d="M48.8125 50.9074C48.8125 50.8158 48.9956 50.9074 49.014 51.0356C49.4901 52.977 50.3509 55.1198 52.274 55.2663V55.3762C50.0762 55.6693 48.959 52.8122 48.8125 50.9074Z" fill="#263238"/>
<path d="M49.9716 48.4171C53.0119 47.3182 54.9898 53.4536 52.1694 54.4793C49.3489 55.5049 47.4442 49.3328 49.9716 48.4171Z" fill="#263238"/>
<path d="M50.4317 51.1155C51.4121 50.206 53.0358 53.4682 52.1272 54.3153C51.2185 55.1625 49.617 51.8728 50.4317 51.1155Z" fill="#147BAE"/>
<path d="M51.2851 48.343C51.9261 48.5261 52.6587 48.9657 53.3181 48.8192C53.9774 48.6727 54.4536 47.8302 54.7466 46.9877C54.7466 46.8961 54.7466 46.9877 54.8748 46.9877C55.1508 47.5184 55.2136 48.1345 55.0501 48.7099C54.8867 49.2853 54.5095 49.7765 53.9957 50.0829C53.4286 50.2676 52.8128 50.2327 52.2701 49.9851C51.7275 49.7375 51.2975 49.2953 51.0653 48.7459C50.9371 48.6543 51.0287 48.2697 51.2851 48.343Z" fill="#263238"/>
<path d="M36.6195 53.8743C36.6195 53.8743 36.4913 54.0024 36.6195 54.0757C37.2971 55.9072 37.7733 58.2332 36.2715 59.4236C36.2715 59.4236 36.2715 59.5518 36.2715 59.5335C38.2312 58.5995 37.5718 55.5409 36.6195 53.8743Z" fill="#263238"/>
<path d="M34.2756 52.4459C31.1438 53.2151 32.9203 59.4238 35.814 58.7095C38.7078 57.9952 36.8946 51.7866 34.2756 52.4459Z" fill="#263238"/>
<path d="M34.147 55.7847C35.0038 54.9627 36.4939 57.8346 35.6998 58.6002C34.9057 59.3659 33.4349 56.4691 34.147 55.7847Z" fill="#147BAE"/>
<path d="M33.0862 53.2331C32.7016 53.691 32.3902 54.4236 31.8042 54.6433C31.2181 54.8631 30.4489 54.3503 29.8262 53.8375C29.8262 53.8375 29.8262 53.8375 29.8262 53.9291C30.1375 55.1196 30.8884 56.2367 32.0789 56.1452C33.2693 56.0536 33.6539 54.8082 33.599 53.5628C33.5074 53.3247 33.251 53.1049 33.0862 53.2331Z" fill="#263238"/>
<path d="M42.4614 61.3651C42.4614 61.3651 42.9376 64.3321 43.3588 65.6874C43.3588 65.8156 43.7434 65.6874 44.2013 65.6874C45.4254 65.5478 46.5868 65.0716 47.5567 64.3119C48.5266 63.5521 49.267 62.5385 49.6957 61.3834C49.6957 61.2186 49.5309 61.1454 49.4393 61.2553C48.0874 62.9627 46.2167 64.1841 44.1097 64.7351C43.9082 64.3871 43.4504 59.6252 43.2306 59.6618C42.2137 60.0794 41.2586 60.634 40.3918 61.3102C39.2013 55.1381 38.9999 48.8379 37.7362 42.7024C37.7362 42.4827 37.3516 42.5193 37.3516 42.7024C37.3499 49.4682 38.0248 56.2172 39.3662 62.8486C39.531 63.6179 41.9852 61.7498 42.4614 61.3651Z" fill="#263238"/>
<path d="M78.1901 46.3842C70.8642 48.4354 61.7068 26.9522 60.6446 24.2966C61.249 25.9999 64.3075 35.0474 63.8313 35.6334C63.0544 35.8685 62.2428 35.9676 61.4321 35.9265C61.0824 34.8379 60.6476 33.7785 60.1318 32.7581C59.912 32.2636 60.2783 33.9119 60.6446 35.9631H59.1794C58.5201 33.609 57.5468 31.3543 56.2857 29.2599C55.8095 28.4541 56.8168 32.4101 57.0732 36.0547C50.3518 36.2105 43.6686 37.1134 37.1468 38.747C35.3153 39.2598 33.7769 39.7726 32.4216 40.2671C31.5608 37.5931 30.9564 34.6261 30.9564 35.3038C30.9365 37.097 31.0899 38.888 31.4143 40.6517L29.418 41.4758C28.0261 37.7213 27.8979 31.0731 27.5865 32.2086C26.6913 35.6434 26.4552 39.2168 26.8905 42.7396C24.473 44.0582 23.9052 44.8091 23.6305 44.1498C22.0132 36.4139 23.2081 28.355 27.0004 21.4212C33.3007 10.0661 50.5898 2.20904 64.8936 12.044C64.8936 12.044 74.9667 14.8279 79.0692 23.1794C83.1717 31.5309 82.3842 45.212 78.1901 46.3842Z" fill="#263238"/>
<path d="M73.9941 47.7568C73.9941 47.7568 77.2725 37.0611 81.9427 37.9585C86.613 38.8559 86.0819 52.9766 81.9427 56.2732C81.4473 56.7224 80.8663 57.0669 80.2345 57.2859C79.6027 57.5049 78.9331 57.594 78.266 57.5478C77.5989 57.5016 76.948 57.3211 76.3524 57.0171C75.7568 56.7131 75.2288 56.2919 74.8 55.7787L73.9941 47.7568Z" fill="#AD6359"/>
<path d="M81.6915 42.0063V42.1346C78.8527 44.4972 78.0286 48.0685 77.9187 51.585C78.0027 51.199 78.1696 50.8359 78.4077 50.5207C78.6458 50.2056 78.9495 49.9459 79.2978 49.7595C79.646 49.5732 80.0306 49.4647 80.4249 49.4415C80.8193 49.4183 81.2139 49.481 81.5816 49.6253C81.6915 49.6253 81.5816 49.8084 81.5816 49.8267C80.9513 49.828 80.3367 50.024 79.822 50.3879C79.3073 50.7518 78.9176 51.2658 78.7062 51.8597C78.373 52.866 78.1399 53.9028 78.0103 54.9549C78.0103 55.2845 77.3875 55.3029 77.3875 54.9549V54.9365C75.9407 50.7242 77.3692 43.9477 81.6915 42.0063Z" fill="#263238"/>
</g>
</svg>
