<svg width="101" height="100" viewBox="0 0 101 100" fill="none" xmlns="http://www.w3.org/2000/svg">
<mask id="mask0_424_2695" style="mask-type:alpha" maskUnits="userSpaceOnUse" x="0" y="0" width="101" height="100">
<circle cx="50.5" cy="50" r="50" fill="#D9D9D9"/>
</mask>
<g mask="url(#mask0_424_2695)">
<rect x="-2.22656" y="-20.9678" width="137.097" height="166.129" fill="#FDBD04"/>
<path d="M67.4872 10.8563C69.7243 11.0977 79.4934 9.82632 86.1402 18.6298C92.433 26.9504 94.9598 29.8956 96.3599 35.5124C97.7601 41.1292 105.083 41.8052 106.902 48.2428C108.511 53.7952 104.439 55.8875 104.069 59.9753C103.795 63.1942 107.062 67.8614 104.23 72.577C101.671 76.8741 97.0359 76.0533 94.2677 77.4052C91.4995 78.7571 89.8418 85.2591 84.7078 87.0616C79.5738 88.8641 74.9227 84.2452 72.1867 84.3095C69.4507 84.3739 66.3124 92.8233 57.3641 92.2278C48.4158 91.6323 45.712 84.0842 41.9943 82.5714C38.2765 81.0586 29.0386 83.8428 24.7415 79.3526C20.4443 74.8624 19.6236 68.6501 17.6923 66.4774C15.761 64.3047 11.7697 64.6587 9.32336 59.4442C6.87706 54.2298 11.7053 50.8178 12.3329 46.2632C12.7675 43.0444 9.90275 40.2119 11.8179 35.3354C14.4413 28.6242 22.617 29.9439 25.6266 23.0556C27.9925 17.648 32.6919 16.7789 46.7098 10.8402C56.3984 6.70408 67.4872 10.8563 67.4872 10.8563Z" fill="#263238"/>
<path d="M25.0449 110.961L65.3766 123.482C65.3766 123.482 76.3366 105.296 80.9717 94.3844C87.1196 79.8997 83.1927 74.2668 65.8594 82.6357C54.2878 88.2364 25.0449 110.961 25.0449 110.961Z" fill="#2C3874"/>
<path d="M151.868 185.991C151.868 185.991 167.495 166.083 164.147 91.5516C164.147 91.5516 145.398 94.5451 140.473 93.5795C125.554 90.6665 114.368 82.4102 97.1801 76.0048C79.9916 69.5993 68.2108 74.6368 61.3064 86.3049C59.6005 89.218 52.8571 129.212 58.9889 144.243C63.8171 156.121 85.5924 159.114 85.5924 159.114C85.5924 159.114 130.543 186.281 151.868 185.991Z" fill="#2C3874"/>
<path d="M83.4198 84.3415C83.291 86.2888 76.3867 99.8883 67.7925 100.902C64.976 101.224 62.5136 86.0153 62.5136 86.0153L62.0791 84.937L55.9473 69.7764L72.4597 54.8572L74.8738 52.8455C74.8738 52.8455 76.274 57.0943 77.9639 62.4214C78.0444 62.6628 78.1249 62.9042 78.2053 63.1778C78.2858 63.4514 78.4145 63.7572 78.495 64.0308C78.7686 64.8194 79.0261 65.6402 79.2836 66.4449C79.5411 67.2496 79.6538 67.668 79.8308 68.3118L80.3941 70.2592C81.7208 74.8792 82.7317 79.5842 83.4198 84.3415Z" fill="#AD6359"/>
<path d="M77.957 62.3451C77.0969 67.0562 75.2221 71.5238 72.4627 75.4378C69.7033 79.3519 66.1254 82.6187 61.9771 85.0116L55.8086 69.7603L72.4199 54.7518L74.8485 52.728C74.8485 52.728 76.257 56.9861 77.957 62.3451Z" fill="#263238"/>
<path d="M28.7637 52.926C35.2013 80.8652 52.6472 80.1893 58.6664 78.8052C64.1384 77.5337 82.5982 72.5446 79.1219 44.0904C75.6456 15.6361 60.5494 9.79393 47.9478 12.0149C35.3461 14.2359 22.3582 25.0028 28.7637 52.926Z" fill="#AD6359"/>
<path d="M33.1897 49.8036C33.7907 49.5299 34.3763 49.2236 34.9439 48.8862C35.6047 48.6492 36.1698 48.2028 36.5533 47.6148C36.6349 47.4041 36.6461 47.1726 36.5852 46.955C36.5242 46.7375 36.3945 46.5455 36.2154 46.4077C35.8179 46.1976 35.3722 46.096 34.9229 46.1129C34.4737 46.1299 34.0369 46.2649 33.6564 46.5043C32.8079 46.8773 32.1303 47.5549 31.7573 48.4034C31.6827 48.6022 31.6675 48.8183 31.7136 49.0256C31.7597 49.2328 31.8651 49.4222 32.0169 49.5706C32.1687 49.719 32.3604 49.8201 32.5686 49.8614C32.7769 49.9028 32.9927 49.8827 33.1897 49.8036Z" fill="#263238"/>
<path d="M51.9233 40.8556C51.272 40.9385 50.6163 40.9815 49.9598 40.9843C49.2692 41.1362 48.5473 41.0452 47.9159 40.7269C47.7337 40.5954 47.6012 40.4063 47.5399 40.1901C47.4785 39.974 47.4919 39.7435 47.5779 39.5359C47.8094 39.1477 48.1402 38.8283 48.5363 38.6105C48.9323 38.3926 49.3792 38.2843 49.8311 38.2967C50.7452 38.1734 51.672 38.4036 52.4222 38.9404C52.5879 39.0699 52.7122 39.2451 52.7796 39.4444C52.847 39.6436 52.8547 39.8583 52.8017 40.0619C52.7486 40.2654 52.6372 40.449 52.4812 40.59C52.3251 40.7311 52.1312 40.8234 51.9233 40.8556Z" fill="#263238"/>
<path d="M50.1211 51.6545C50.1211 51.6545 50.2981 51.6546 50.3142 51.7833C50.7327 53.6824 51.5374 55.8068 53.4043 56V56.1126C51.2638 56.3379 50.2177 53.5214 50.1211 51.6545Z" fill="#263238"/>
<path d="M51.3111 49.2406C54.3046 48.2428 56.1394 54.2942 53.3229 55.2115C50.5064 56.1289 48.8166 50.0936 51.3111 49.2406Z" fill="#263238"/>
<path d="M52.5985 49.2083C53.2262 49.4015 53.9182 49.8521 54.5781 49.7234C55.2379 49.5946 55.7046 48.7899 56.0104 48.0334C56.0104 48.0334 56.107 48.0334 56.1231 48.0334C56.3856 48.5595 56.4368 49.1661 56.2662 49.7288C56.0956 50.2914 55.7162 50.7674 55.2057 51.0591C54.1113 51.542 53.0009 50.7534 52.3732 49.6751C52.2444 49.5141 52.341 49.144 52.5985 49.2083Z" fill="#263238"/>
<path d="M38.741 54.2781C38.741 54.2781 38.6284 54.4068 38.6445 54.4873C39.2721 56.3381 39.6906 58.5591 38.1777 59.7018C38.1777 59.7018 38.1777 59.8305 38.1777 59.7983C40.2056 58.881 39.6262 55.9358 38.741 54.2781Z" fill="#263238"/>
<path d="M36.492 52.8296C33.4181 53.5216 35.0114 59.6213 37.86 58.9775C40.7087 58.3338 39.0671 52.2663 36.492 52.8296Z" fill="#263238"/>
<path d="M35.3179 53.57C34.9316 54.0206 34.5937 54.7288 34.0304 54.9219C33.4671 55.115 32.7107 54.6161 32.1152 54.085C32.1152 54.085 32.0186 54.085 32.1152 54.1816C32.3888 55.3564 33.0808 56.4669 34.2718 56.4026C35.4627 56.3382 35.8812 55.1311 35.8812 53.908C35.7363 53.6665 35.4788 53.393 35.3179 53.57Z" fill="#263238"/>
<path d="M43.6655 61.7134C43.6655 61.7134 44.0839 64.6425 44.4541 65.9622C44.4541 66.091 44.8243 66.0588 45.2749 65.9622C46.4711 65.8584 47.6145 65.422 48.5758 64.7025C49.537 63.9829 50.2779 63.0089 50.7147 61.8904C50.7147 61.7295 50.5698 61.649 50.4733 61.7617C49.1055 63.3742 47.2544 64.503 45.1944 64.9805C44.9852 64.6425 44.6633 59.9752 44.438 60.0074C43.4412 60.3912 42.4995 60.9054 41.6376 61.5364C40.6076 55.5011 40.5593 49.3371 39.4489 43.3179C39.437 43.278 39.4125 43.2431 39.3792 43.2182C39.3458 43.1934 39.3054 43.1799 39.2638 43.1799C39.2222 43.1799 39.1817 43.1934 39.1483 43.2182C39.115 43.2431 39.0906 43.278 39.0787 43.3179C38.9344 49.9287 39.4411 56.5377 40.5915 63.0492C40.7686 63.8539 43.1988 62.0996 43.6655 61.7134Z" fill="#263238"/>
<path d="M79.3972 46.6655C77.3703 46.4142 75.4436 45.6395 73.8069 44.4176C72.1702 43.1957 70.8798 41.5688 70.0627 39.6968C64.6167 39.2321 59.3938 37.3208 54.9343 34.1605C55.3044 34.6594 57.9761 38.2484 59.4084 40.0348C41.1256 42.6581 31.3243 31.3119 31.3243 31.3119C29.0566 35.4448 27.763 40.0413 27.5422 44.7504C27.5422 44.7504 23.8245 34.257 26.8502 25.3409C27.7762 22.2876 29.4988 19.5361 31.8409 17.3694C34.183 15.2027 37.06 13.699 40.176 13.0129C44.0713 10.5412 48.5613 9.16627 53.1726 9.03314C57.784 8.90001 62.3458 10.0136 66.3771 12.2565C81.6826 20.6254 79.3972 46.6655 79.3972 46.6655Z" fill="#263238"/>
<path d="M45.3718 41.6603C48.6463 42.2309 51.9873 42.3122 55.2857 41.9017C49.9982 42.2223 44.726 41.0631 40.0607 38.5542C38.082 37.4756 36.244 36.1566 34.5887 34.6272C32.7243 33.0135 31.1935 31.0508 30.0824 28.8495C30.0824 28.6724 29.7605 28.8494 29.8249 28.9621C30.6902 31.2538 31.9302 33.3858 33.4944 35.271C35.1289 37.0701 37.0754 38.5587 39.2399 39.6647C41.1777 40.6271 43.2422 41.3098 45.3718 41.6925" fill="#263238"/>
<path d="M54.7725 60.9733C52.4265 61.1792 50.0942 60.4485 48.285 58.9408C46.4758 57.4332 45.3366 55.271 45.1161 52.9263C44.951 51.2685 45.2545 49.5976 45.9921 48.1038C46.7297 46.61 47.8718 45.3533 49.2884 44.4765C50.705 43.5997 52.3393 43.1382 54.0053 43.1443C55.6713 43.1505 57.3021 43.6242 58.7121 44.5115C60.1222 45.3987 61.2549 46.6639 61.9814 48.1632C62.708 49.6624 62.9991 51.3355 62.8217 52.992C62.6443 54.6485 62.0055 56.222 60.978 57.5334C59.9505 58.8448 58.5755 59.8414 57.0096 60.41C56.2925 60.6972 55.5401 60.8867 54.7725 60.9733ZM46.2266 52.9263C46.3774 54.4437 46.9748 55.8823 47.9434 57.0601C48.9119 58.2379 50.208 59.1021 51.6676 59.5432C53.1273 59.9843 54.6851 59.9827 56.1438 59.5384C57.6026 59.0941 58.8968 58.2272 59.8628 57.0473C60.8288 55.8674 61.4231 54.4275 61.5707 52.9098C61.7182 51.392 61.4124 49.8646 60.6918 48.5207C59.9711 47.1769 58.8682 46.0769 57.5223 45.3599C56.1765 44.643 54.6482 44.3413 53.1309 44.493C52.4942 44.5577 51.8674 44.6982 51.264 44.9114C49.6543 45.4994 48.2857 46.6059 47.3738 48.0568C46.4619 49.5078 46.0583 51.2208 46.2266 52.9263Z" fill="#2C3874"/>
<path d="M36.409 65.2382C32.8522 66.0751 29.0379 62.8723 27.9113 58.0924C27.3801 55.9551 27.5263 53.7054 28.3298 51.6548C28.6233 50.7464 29.1468 49.9293 29.8493 49.2829C30.5519 48.6365 31.4096 48.1828 32.3393 47.9658C33.269 47.7487 34.239 47.7758 35.1551 48.0443C36.0712 48.3128 36.9024 48.8137 37.5678 49.4982C39.205 50.9851 40.3314 52.9507 40.7866 55.115C41.8488 59.6374 40.1267 63.9667 36.924 65.1255C36.7554 65.1759 36.5832 65.2135 36.409 65.2382ZM29.4242 52.0733C28.7111 53.9105 28.5874 55.9241 29.0701 57.8349C30.0519 61.9711 33.2063 64.7714 36.1354 64.0794C39.0645 63.3874 40.6256 59.4765 39.66 55.3403C39.2508 53.4147 38.2423 51.6682 36.7792 50.3512C36.2379 49.8196 35.5763 49.4264 34.8507 49.2051C34.125 48.9837 33.3566 48.9407 32.6108 49.0797L32.1763 49.2085C31.5525 49.471 30.9909 49.8617 30.5279 50.3552C30.0649 50.8487 29.7108 51.4341 29.4886 52.0733H29.4242Z" fill="#2C3874"/>
<path d="M45.5646 53.956L46.0635 52.9259C44.4541 52.1373 41.1065 51.3165 39.5293 54.1169L40.5593 54.7123C42.0078 52.2017 45.4197 53.8916 45.5646 53.956Z" fill="#2C3874"/>
<path d="M84.6914 47.1163L85.5926 46.3438C85.2225 45.9253 81.9876 42.2398 79.2999 42.4168C76.6122 42.5939 61.5964 47.6957 60.9688 47.921L61.355 49.0476C65.7004 47.583 77.4491 43.7365 79.3803 43.6078C81.3116 43.479 83.8062 46.1024 84.6914 47.1163Z" fill="#2C3874"/>
<path d="M75.1621 47.2771C75.1621 47.2771 78.3809 36.8481 82.9194 37.7172C87.4579 38.5863 86.9751 52.395 82.9194 55.5494C82.4357 55.9912 81.8671 56.3298 81.2482 56.5448C80.6294 56.7597 79.9733 56.8465 79.3199 56.7998C78.6665 56.7531 78.0294 56.574 77.4474 56.2733C76.8654 55.9725 76.3507 55.5565 75.9346 55.0505L75.1621 47.2771Z" fill="#AD6359"/>
<path d="M82.6966 41.6602C82.6966 41.6602 82.8093 41.6602 82.6966 41.7728C79.9446 44.0743 79.2203 47.5667 79.0272 51.0108C79.1104 50.6329 79.2742 50.2774 79.5074 49.9686C79.7406 49.6598 80.0377 49.4049 80.3785 49.2216C80.7193 49.0382 81.0956 48.9306 81.4818 48.9061C81.868 48.8815 82.255 48.9407 82.6162 49.0795C82.7128 49.0795 82.6162 49.2726 82.6162 49.2887C82.0035 49.2984 81.4091 49.499 80.9158 49.8625C80.4225 50.226 80.0549 50.7343 79.8641 51.3166C79.5277 52.2925 79.2957 53.3013 79.1721 54.3262C79.1721 54.648 78.5605 54.6641 78.5605 54.3262V54.2457C77.1442 50.1739 78.4639 43.4788 82.6966 41.6602Z" fill="#263238"/>
</g>
</svg>
