<svg width="101" height="100" viewBox="0 0 101 100" fill="none" xmlns="http://www.w3.org/2000/svg">
<mask id="mask0_424_2095" style="mask-type:alpha" maskUnits="userSpaceOnUse" x="0" y="0" width="101" height="100">
<circle cx="50.5" cy="50" r="50" fill="#D9D9D9"/>
</mask>
<g mask="url(#mask0_424_2095)">
<rect x="-17.5488" y="-20.9678" width="137.097" height="166.129" fill="#FDBD04"/>
<path d="M-93.9327 214.268C-93.7323 214.687 41.771 251.601 43.3015 250.617C43.4472 250.526 49.059 247.52 50.2616 237.025C50.5895 234.146 46.7451 221.756 46.654 212.61C46.326 180.506 47.5832 120.89 38.8557 88.8767C36.5054 80.2586 17.9754 70.4015 7.80859 76.6692C-37.9969 104.838 -94.1878 213.739 -93.9327 214.286V214.268Z" fill="#EBEBEB"/>
<path d="M14.6233 74.1552C14.6233 74.1552 9.57635 142.517 7.77255 150.443C6.51537 156 -8.84423 211.79 -16.7336 252.111C-20.1225 269.366 -18.5374 296.55 -18.5374 296.55C-18.5374 296.55 -65.7276 281.227 -80.1761 271.388C-88.5574 265.685 -107.215 241.125 -107.215 241.125C-107.215 241.125 -77.352 174.749 -60.4255 149.878C-43.4807 125.008 -11.0671 81.917 4.09208 75.6311C10.9975 72.7705 14.6051 74.137 14.6051 74.137L14.6233 74.1552Z" fill="#FFC727"/>
<g opacity="0.2">
<path d="M14.6233 74.1552C14.6233 74.1552 9.57635 142.517 7.77255 150.443C6.51537 156 -8.84423 211.79 -16.7336 252.111C-20.1225 269.366 -18.5374 296.55 -18.5374 296.55C-18.5374 296.55 -65.7276 281.227 -80.1761 271.388C-88.5574 265.685 -107.215 241.125 -107.215 241.125C-107.215 241.125 -77.352 174.749 -60.4255 149.878C-43.4807 125.008 -11.0671 81.917 4.09208 75.6311C10.9975 72.7705 14.6051 74.137 14.6051 74.137L14.6233 74.1552Z" fill="#030402"/>
</g>
<path d="M29.0899 109.229C21.4375 107.407 14.9875 87.292 14.6231 76.4874C14.6049 75.7404 17.4655 72.2057 21.9659 65.0816C24.6807 60.7452 27.5959 55.8622 29.9463 51.2161L55.5638 72.9892C55.5638 72.9892 47.7838 81.2975 43.7572 89.442C43.4292 90.1343 43.1741 90.7902 42.9919 91.4462C42.9555 91.5373 42.9372 91.6648 42.8826 91.7924C41.6436 95.7097 36.5055 110.996 29.1081 109.247L29.0899 109.229Z" fill="#FFCAC4"/>
<path d="M39.586 96.001C40.1143 96.2743 40.6245 96.5294 41.1164 96.7663C41.9363 94.6709 42.5558 92.8125 42.8656 91.7739C42.902 91.6464 42.9385 91.5189 42.9749 91.4278C43.1571 90.7718 43.4122 90.0977 43.7401 89.4053C47.7668 81.2791 55.5468 72.9707 55.5468 72.9707L29.9293 51.1794C29.4373 52.1633 28.9272 53.129 28.3988 54.1311C25.4289 64.8263 22.0217 86.6723 39.586 95.9828V96.001Z" fill="#263238"/>
<path d="M35.9978 19.2826C32.2627 21.4508 22.0776 18.6996 18.9073 12.7598C14.5345 4.56072 25.7399 -6.68111 34.522 -1.01465C43.3041 4.67004 38.8766 17.6063 35.9978 19.2826Z" fill="#08915F"/>
<path d="M22.7881 -0.158447C20.4741 1.88221 18.5064 4.36015 17.5043 7.12961C17.0305 8.51435 16.8666 9.97196 17.2127 11.3202C17.5407 12.6685 18.3059 13.8893 19.3627 14.8914C20.3648 15.9117 21.6584 16.7316 22.9521 17.4787C24.2457 18.2439 25.6304 18.7905 27.0516 19.246C29.9122 20.0841 33.046 20.2299 36.0159 19.2825C33.2829 20.7947 29.8757 21.1045 26.7601 20.3939C25.1931 20.0477 23.6809 19.4829 22.2597 18.7358C20.875 17.9706 19.4902 17.1325 18.3059 15.9664C17.1398 14.8185 16.1742 13.3245 15.828 11.63C15.4818 9.95373 15.7551 8.2046 16.4293 6.71055C17.7593 3.70423 20.1462 1.44493 22.8063 -0.158447H22.7881Z" fill="#08915F"/>
<path d="M34.7007 22.1056C27.8317 31.6917 26.5555 61.7362 32.1126 70.9705C40.1659 84.3735 53.6573 94.9661 67.8444 84.8074C80.5075 74.6585 86.2667 39.7618 79.5799 30.8617C69.741 17.7402 44.8311 7.94633 34.7007 22.1056Z" fill="#FFCAC4"/>
<path d="M57.514 52.1819C57.514 52.1819 57.3318 52.273 57.3136 52.3641C57.0767 54.6416 56.439 57.1924 54.289 57.6844C54.2162 57.6844 54.2162 57.8119 54.289 57.8119C56.8399 57.8119 57.6597 54.3865 57.514 52.2001V52.1819Z" fill="#263238"/>
<path d="M55.8208 49.5397C52.2133 48.7745 50.9561 56.0443 54.2904 56.7367C57.57 57.4291 58.8454 50.1775 55.8208 49.5397Z" fill="#263238"/>
<path d="M70.6325 54.3499C70.6325 54.3499 70.7964 54.4956 70.7782 54.5867C70.3227 56.8278 70.1587 59.4697 72.0718 60.5629C72.1265 60.5994 72.1083 60.7087 72.0354 60.6905C69.6121 59.907 69.849 56.4087 70.6507 54.3681L70.6325 54.3499Z" fill="#263238"/>
<path d="M73.0567 52.3638C76.7189 52.71 75.7533 60.0163 72.3461 59.6883C69.0118 59.3604 69.9775 52.0541 73.0567 52.3638Z" fill="#263238"/>
<path d="M53.524 45.7318C54.5625 45.659 55.4917 45.4039 56.5121 45.2217C57.6599 45.0213 58.5892 44.9666 59.4637 44.1285C59.9374 43.673 59.9374 42.7255 59.5366 42.2336C58.6074 41.0857 57.1498 40.9764 55.765 41.1768C54.2528 41.3772 53.1595 41.9238 52.121 43.0353C51.1189 44.1103 52.1757 45.8229 53.524 45.7318Z" fill="#263238"/>
<path d="M76.5005 49.1935C75.5166 48.8473 74.6785 48.3736 73.7492 47.9363C72.6925 47.4444 71.7997 47.1711 71.1802 46.1325C70.8522 45.5677 71.0891 44.6567 71.5993 44.2741C72.7836 43.3995 74.223 43.6728 75.5166 44.2194C76.9196 44.8025 77.8488 45.6224 78.5594 46.9524C79.2517 48.2461 77.7941 49.649 76.5005 49.1935Z" fill="#263238"/>
<path d="M52.5025 72.4425C52.958 73.062 53.3588 73.8819 54.1605 74.1006C54.9258 74.301 55.9097 74.1006 56.6749 73.9548C56.7478 73.9548 56.8024 74.0277 56.7478 74.0823C56.019 74.8476 54.6889 75.1756 53.6868 74.8112C52.7029 74.465 52.3567 73.4811 52.2656 72.5154C52.2656 72.3879 52.4296 72.3696 52.5025 72.4425Z" fill="#263238"/>
<path d="M56.0392 66.12C56.9502 68.2882 58.6264 69.6729 60.5577 70.4199C61.4141 70.7479 62.3615 70.9483 63.2908 71.0212C63.473 71.0576 63.6552 71.0576 63.8192 71.0576C63.9831 71.0576 64.1471 71.0576 64.3293 71.0576C64.6026 71.0576 64.7848 70.8754 64.8759 70.6386C64.8759 70.5475 64.8941 70.4746 64.8941 70.3835L64.9306 70.1648C65.2768 68.4339 65.5683 65.7738 65.5683 65.7738C66.1513 66.1928 69.1212 68.2153 69.2305 67.3043C70.0869 59.7429 71.0343 51.3252 70.2873 43.6181C70.2873 43.363 69.8865 43.363 69.8682 43.6181C68.7568 50.8515 68.939 58.2488 67.9369 65.5369C66.9712 64.9721 65.4225 63.9518 64.5115 63.806C64.2565 63.8424 64.0378 68.9623 63.8192 69.7276C63.8192 69.7276 63.8192 69.764 63.7827 69.8004C60.8128 69.6729 58.7722 68.4157 56.276 65.956C56.1303 65.792 55.9298 65.9195 56.0392 66.12Z" fill="#263238"/>
<path d="M62.4153 69.9645C62.4153 69.9645 60.5204 71.7683 58.2793 72.151C57.4594 72.2967 56.6031 72.2603 55.765 71.8777C54.0523 71.0942 54.2891 69.4362 54.8722 68.0879C55.3459 66.9764 56.0565 66.0654 56.0565 66.0654C56.0565 66.0654 58.2611 68.9807 62.4153 69.9645Z" fill="#263238"/>
<path d="M58.2793 72.151C57.4594 72.2967 56.6031 72.2603 55.765 71.8777C54.0523 71.0942 54.2891 69.4362 54.8722 68.0879C56.7671 68.6163 58.4433 70.2561 58.2793 72.151Z" fill="#FF98B9"/>
<path opacity="0.3" d="M26.6133 56.9552C27.415 56.19 38.8572 45.2943 43.394 39.3363C45.8902 36.0567 46.8741 21.6081 46.9105 21.2619C46.6008 18.3467 45.4894 15.9781 43.9224 14.6116C40.2966 16.3971 37.0899 19.0209 34.703 22.4827C30.4395 28.6411 27.1599 43.946 26.6133 56.937V56.9552Z" fill="#08915F"/>
<path d="M33.2263 50.5418C33.2263 50.5418 29.0722 38.061 23.6061 39.2453C18.1583 40.4296 19.1422 57.0281 24.0252 60.7086C28.9264 64.3891 32.4247 59.9251 32.4247 59.9251L33.2081 50.5418H33.2263Z" fill="#FFCAC4"/>
<path d="M24.0073 44.0007C24.0073 44.0007 23.8616 44.0918 23.9345 44.1465C27.3234 46.8613 28.3073 51.0337 28.617 55.1697C27.8882 53.4023 26.5582 52.1451 24.2442 52.9468C24.1167 52.9833 24.1713 53.1837 24.2807 53.1837C25.9569 53.3112 27.0137 53.9307 27.706 55.5159C28.198 56.6455 28.3802 57.9209 28.617 59.1235C28.6899 59.5243 29.3641 59.5243 29.3641 59.087V58.9959C30.9128 54.0947 29.1454 46.0778 24.0073 44.019V44.0007Z" fill="#263238"/>
<path d="M36.6345 16.1305C32.0795 18.8271 43.4489 26.844 45.362 27.6092C47.2751 28.3745 45.4531 23.6008 45.4531 23.6008C45.4531 23.6008 50.6276 32.474 54.8911 34.8608C59.1364 37.2477 64.4749 38.0858 64.4749 38.0858L59.4279 30.6156C59.4279 30.6156 69.6312 41.9303 76.5913 44.3353C83.5514 46.7404 86.9221 52.006 86.9221 52.006C86.9221 52.006 91.0217 35.9358 87.7603 30.1965C84.4989 24.4571 79.8527 20.0661 79.8527 20.0661L88.6348 23.2546C88.6348 23.2546 82.3853 16.8958 77.4295 14.7822C72.4736 12.6505 61.4139 11.5026 61.4139 11.5026L69.0117 9.18865C69.0117 9.18865 62.7258 6.25521 57.4784 6.76537C52.231 7.25732 43.6311 10.1361 43.6311 10.1361L49.4069 6.85647C49.4069 6.85647 44.706 6.01834 42.0459 8.02256C39.3858 10.0268 36.6345 16.1305 36.6345 16.1305Z" fill="#08915F"/>
<path d="M-7.38895 99.1352C-12.855 138.8 -9.61181 211.59 -2.25087 223.834C4.27195 234.693 44.83 256.32 68.0061 267.672C75.5492 271.37 101.44 213.922 93.1681 210.424C81.908 205.65 41.186 186.319 39.8923 183.786C38.4712 181.017 27.5573 127.777 17.4815 97.6411C8.35325 70.3291 -5.3483 84.1218 -7.40717 99.1352H-7.38895Z" fill="#F7A9A0"/>
<path d="M-8.04377 217.694C1.33961 238.282 61.3568 269.129 61.3568 269.129L84.4964 203.026C84.4964 203.026 41.7701 184.843 40.6769 182.438C38.3812 177.482 28.1414 118.084 15.9522 90.845C5.71244 67.9604 -6.73192 80.3502 -9.73824 105.366C-13.3641 135.539 -11.3416 210.406 -8.02554 217.694H-8.04377Z" fill="#FFC727"/>
<path opacity="0.2" d="M-8.04377 217.694C1.33961 238.282 61.3568 269.129 61.3568 269.129L84.4964 203.026C84.4964 203.026 41.7701 184.843 40.6769 182.438C38.3812 177.482 28.1414 118.084 15.9522 90.845C5.71244 67.9604 -6.73192 80.3502 -9.73824 105.366C-13.3641 135.539 -11.3416 210.406 -8.02554 217.694H-8.04377Z" fill="#030402"/>
</g>
</svg>
