<svg width="48" height="48" viewBox="0 0 48 48" fill="none" xmlns="http://www.w3.org/2000/svg">
<path d="M1.4407 24C0.480703 23.52 0.480703 22.56 1.4407 22.08C2.4007 21.6 29.9431 10.9776 44.2135 5.4768C45.4663 4.9968 47.0407 5.28 47.5207 6.24C48.0007 7.2 48.0007 8.16 47.5207 9.6C47.0407 11.04 46.8343 12.2112 46.6039 13.3008C44.6503 22.3728 42.7591 31.4544 40.7671 40.5168C40.0039 43.9824 38.3815 44.5488 35.4775 42.4896C32.8663 40.6368 30.2791 38.7552 27.7351 36.8112C26.5783 35.928 25.6663 35.8992 24.6151 36.9744C23.3863 38.2272 22.0711 39.4128 20.7127 40.5216C19.5559 41.4672 18.7111 41.1456 18.7447 39.6C18.7879 37.5264 19.1047 35.4528 19.1191 33.3792C19.1287 31.4688 19.8439 30.0576 21.2647 28.7952C26.7127 23.9712 32.1079 19.0848 37.5031 14.1984C37.9159 13.8288 38.9815 12.9936 38.4535 12.7344C37.9255 12.4752 36.3895 13.6272 35.4631 14.2032C28.8727 18.312 22.2775 22.4016 15.7447 26.5824C14.1799 27.5856 12.7543 27.7632 11.0119 27.1344C7.6807 25.92 2.4007 24.48 1.4407 24Z" fill="#F35E79"/>
</svg>
