<svg width="24" height="25" viewBox="0 0 24 25" fill="none" xmlns="http://www.w3.org/2000/svg">
<path d="M21.0003 2.5L19.0003 4.5M19.0003 4.5L22.0003 7.5L18.5003 11L15.5003 8M19.0003 4.5L15.5003 8M11.3903 12.11C11.9066 12.6195 12.3171 13.226 12.598 13.8948C12.879 14.5635 13.0249 15.2813 13.0273 16.0066C13.0297 16.732 12.8887 17.4507 12.6122 18.1213C12.3357 18.7919 11.9293 19.4012 11.4164 19.9141C10.9035 20.4271 10.2942 20.8334 9.62358 21.1099C8.95296 21.3864 8.23427 21.5275 7.50891 21.525C6.78354 21.5226 6.06582 21.3767 5.39707 21.0958C4.72831 20.8148 4.12174 20.4043 3.61227 19.888C2.6104 18.8507 2.05604 17.4614 2.06857 16.0193C2.0811 14.5772 2.65953 13.1977 3.67927 12.178C4.69902 11.1583 6.07849 10.5798 7.52057 10.5673C8.96265 10.5548 10.352 11.1091 11.3893 12.111L11.3903 12.11ZM11.3903 12.11L15.5003 8" stroke="#F35E79" stroke-width="2" stroke-linecap="round" stroke-linejoin="round"/>
</svg>
